<svg width="177" height="71" viewBox="0 0 177 71" fill="none" xmlns="http://www.w3.org/2000/svg">
<path d="M11.2442 43.0662L19.3891 37.3122C22.5502 35.0805 25.7129 32.8523 28.8772 30.6278C29.205 30.3979 29.2288 30.1927 29.108 29.8523C26.6991 23.0683 24.2954 16.2829 21.8971 9.49627L20.1558 4.58189C20.1251 4.49309 20.1013 4.40232 20.0498 4.22966C22.0724 5.68 24.0247 7.07805 25.976 8.47807C29.4401 10.9644 32.9013 13.454 36.3595 15.9468C36.6034 16.1296 36.7886 16.3792 36.8924 16.6651C37.9819 19.8657 39.0348 23.0782 40.1204 26.2778C40.2611 26.6912 40.1947 26.9151 39.8381 27.1746C36.3806 29.6971 32.9313 32.2314 29.4903 34.7776C29.3546 34.8762 29.2318 34.9946 29.104 35.1041L29.1456 35.2423C29.4982 35.2423 29.8518 35.2472 30.2045 35.2423C32.857 35.2048 35.5096 35.1666 38.1622 35.1278C39.5618 35.1061 40.9623 35.0874 42.3609 35.0469C42.7027 35.037 42.8493 35.1554 42.9552 35.4791C43.7635 38.0088 44.5975 40.5316 45.4058 43.0613C45.4756 43.2936 45.4756 43.5413 45.4058 43.7736C43.296 50.2742 41.1776 56.7727 39.0507 63.2693C39.0319 63.3275 39.0051 63.3828 38.9457 63.5288C38.6267 62.5619 38.3335 61.6818 38.0443 60.7998C36.1399 54.9721 34.2388 49.1432 32.341 43.3129C32.2132 42.9182 32.022 42.7712 31.6031 42.7811C29.3962 42.8304 27.1884 42.8541 24.9805 42.8896C23.0699 42.9192 21.1592 42.9557 19.2485 42.9883C16.9911 43.0238 14.7348 43.0514 12.4774 43.0919C12.0723 43.0988 11.6672 43.1481 11.262 43.1777L11.2442 43.0662ZM7.29705 43.154C7.44464 43.154 7.60807 43.0553 7.73585 42.9616C13.9001 38.5356 20.064 34.1096 26.2276 29.6836C26.5089 29.4863 26.5584 29.3146 26.4475 28.9989C23.3888 20.3219 20.3347 11.6465 17.2853 2.9727C17.23 2.78543 17.1297 2.61441 16.9931 2.47446C16.0581 1.65753 15.1062 0.859351 14.0959 0C14.1494 0.197325 14.1731 0.305854 14.2088 0.411423C17.0199 8.8372 19.8362 17.2613 22.6578 25.6838C22.8302 26.1959 22.74 26.4583 22.3092 26.7741C15.6008 31.6828 8.90068 36.6038 2.20883 41.5369C1.46 42.0885 0.713164 42.6419 0 43.1678C2.4307 43.1629 4.86437 43.1668 7.29705 43.154ZM73.6173 43.2655C69.8059 40.6779 65.9931 38.0916 62.179 35.5067C62.0462 35.4132 61.8918 35.3545 61.7303 35.336C61.1231 35.2936 60.5149 35.259 59.9068 35.2571C57.3027 35.2482 54.6977 35.264 52.0936 35.2393C51.6598 35.2393 51.4993 35.3942 51.3755 35.779C50.7159 37.8558 50.0294 39.9228 49.3549 41.9947C49.2152 42.4239 49.0855 42.857 48.923 43.376H73.7501C73.7079 43.3368 73.6636 43.2999 73.6173 43.2655ZM38.4316 15.5324C40.8405 17.2557 43.2507 18.9784 45.6623 20.7004C46.1704 21.0625 46.6914 21.687 47.2035 21.687C47.7384 21.687 48.2931 21.095 48.7933 20.7073C49.0626 20.5029 49.2719 20.2304 49.3995 19.918C51.3587 14.5244 53.3067 9.12826 55.2434 3.72944C55.293 3.5923 55.3276 3.44924 55.4099 3.172L38.187 15.3243C38.3098 15.4279 38.3692 15.49 38.4316 15.5324ZM36.7477 70.0159C37.1175 69.1736 37.4286 68.3069 37.6788 67.422C37.755 67.1627 37.7571 66.8873 37.6848 66.6268C36.4526 62.7356 35.2092 58.8479 33.9545 54.9639C32.9033 51.687 31.8487 48.4111 30.7908 45.1361C30.7393 44.9753 30.5759 44.7415 30.4521 44.7326C29.833 44.6912 29.21 44.7139 28.4869 44.7139C31.2663 53.2245 34.007 61.6207 36.7477 70.0159ZM52.6652 28.6822C52.6652 27.959 52.6652 27.2368 52.6652 26.5116C52.6601 26.4295 52.6502 26.3478 52.6355 26.2669C52.473 25.0455 51.5172 24.2453 50.2741 24.2937C49.7053 24.3048 49.1629 24.5345 48.7602 24.9348C48.3576 25.3351 48.126 25.875 48.1138 26.4416C48.0791 27.9353 48.0771 29.432 48.1138 30.9258C48.1122 31.3242 48.2247 31.7149 48.438 32.0519C48.6513 32.389 48.9567 32.6585 49.3182 32.829C50.8743 33.6183 52.576 32.5942 52.6602 30.8064C52.6939 30.101 52.6662 29.3935 52.6662 28.6871L52.6652 28.6822ZM51.5647 30.6051C51.549 30.8974 51.4767 31.1838 51.3518 31.4487C51.1537 31.8581 50.7783 32.015 50.3305 32.0012C49.8828 31.9874 49.5253 31.7723 49.3648 31.3569C49.249 31.0514 49.1863 30.7284 49.1796 30.4019C49.1578 29.2534 49.1687 28.104 49.1736 26.9556C49.1769 26.7755 49.1972 26.5962 49.2341 26.4199C49.3757 25.7134 49.8204 25.3208 50.4345 25.3484C51.0487 25.376 51.5291 25.8703 51.5608 26.5678C51.5924 27.2654 51.5677 27.9787 51.5677 28.6851H51.5746C51.5746 29.3255 51.5964 29.9658 51.5647 30.6051ZM43.813 31.4122C44.5846 30.3881 45.3533 29.363 46.1308 28.3438C46.5484 27.8077 46.7497 27.1356 46.6954 26.4593C46.6161 25.1086 45.6643 24.2434 44.2776 24.2887C42.9899 24.3351 42.0816 25.3257 42.1173 26.702H43.186C43.2019 26.5649 43.2068 26.484 43.2207 26.406C43.3425 25.745 43.7675 25.3573 44.3865 25.3425C45.0056 25.3277 45.4384 25.7144 45.5751 26.3735C45.6989 26.9507 45.4899 27.4351 45.1492 27.882C44.2429 29.0719 43.3663 30.2825 42.4184 31.4408C42.0103 31.941 42.0499 32.4393 42.1143 32.9878H46.6558V31.9667H43.4218C43.611 31.6963 43.708 31.5513 43.813 31.4122ZM55.5693 31.4122C56.3399 30.3881 57.1086 29.363 57.8861 28.3438C58.3039 27.8078 58.5056 27.1357 58.4517 26.4593C58.3715 25.1086 57.4206 24.2434 56.0329 24.2887C54.7452 24.3351 53.8379 25.3257 53.8726 26.702H54.9394C54.9552 26.5649 54.9602 26.484 54.975 26.406C55.0969 25.745 55.5218 25.3573 56.1399 25.3425C56.7579 25.3277 57.1928 25.7144 57.3334 26.3735C57.4572 26.9507 57.2482 27.4351 56.9075 27.882C56.0012 29.0719 55.1246 30.2825 54.1777 31.4408C53.7686 31.941 53.8082 32.4393 53.8736 32.9878H58.4141V31.9667H55.1771C55.3692 31.6963 55.4683 31.5513 55.5673 31.4122H55.5693ZM61.6174 31.4122C62.388 30.3881 63.1566 29.363 63.9341 28.3438C64.352 27.8078 64.5537 27.1357 64.4997 26.4593C64.4195 25.1086 63.4686 24.2434 62.0809 24.2887C60.7933 24.3351 59.886 25.3257 59.9206 26.702H60.9874C61.0032 26.5649 61.0082 26.484 61.0231 26.406C61.1449 25.745 61.5698 25.3573 62.1879 25.3425C62.806 25.3277 63.2408 25.7144 63.3765 26.3735C63.5003 26.9507 63.2913 27.4351 62.9506 27.882C62.0443 29.0719 61.1677 30.2825 60.2207 31.4408C59.8117 31.941 59.8513 32.4393 59.9167 32.9878H64.4581V31.9667H61.2251C61.4113 31.6963 61.5104 31.5513 61.6174 31.4122Z" fill="#C19B76"/>
<path d="M81.9296 20.7661V22.1278C84.8474 21.9632 85.7452 19.0303 85.7452 13.9578V12.7308H89.0222V22.0081H90.5036V11.4439H84.3387V13.9428C84.3387 18.2373 83.7102 20.5267 81.9296 20.7661ZM93.0135 21.4993C93.597 21.9033 94.2255 22.1876 94.9437 22.1876C96.2605 22.1876 96.9339 21.1252 97.3528 20.0628L100.72 11.4439H99.1634L97.2032 16.7709C96.9788 17.4143 96.7543 18.1475 96.7543 18.1475H96.7244C96.7244 18.1475 96.455 17.4143 96.1258 16.7559L93.5521 11.4439H91.9211L96.0959 19.7187C95.8116 20.4519 95.5123 20.9008 94.8988 20.9008C94.3901 20.9008 93.9412 20.5716 93.6868 20.377L93.0135 21.4993ZM104.799 17.953C105.891 17.953 106.969 17.519 107.507 17.2347H107.537C107.537 17.2347 107.507 17.519 107.507 17.7285V22.0081H109.004V11.4439H107.507V15.888C107.059 16.1873 106.116 16.6063 105.113 16.6063C103.692 16.6063 103.108 15.888 103.108 14.5563V11.4439H101.612V14.8705C101.612 16.8158 102.614 17.953 104.799 17.953ZM111.797 22.0081H124.037V11.4439H122.571V20.7212H118.665V11.4439H117.184V20.7212H113.278V11.4439H111.797V22.0081ZM126.834 22.0081H128.285L132.998 15.1548C133.373 14.5713 133.881 13.6136 133.881 13.6136H133.911C133.911 13.6136 133.821 14.5563 133.821 15.1548V22.0081H135.288V11.4439H133.836L129.153 18.2822C128.779 18.8508 128.255 19.8384 128.255 19.8384H128.225C128.225 19.8384 128.315 18.8957 128.315 18.2971V11.4439H126.834V22.0081ZM142.365 10.9501C143.532 10.9501 144.579 10.2618 144.579 9.03479V8.81034H143.427V9.00487C143.427 9.67822 142.889 10.0074 142.365 10.0074C141.841 10.0074 141.317 9.67822 141.317 9.01983V8.81034H140.15V9.03479C140.15 10.2618 141.213 10.9501 142.365 10.9501ZM138.085 22.0081H139.537L144.25 15.1548C144.624 14.5713 145.133 13.6136 145.133 13.6136H145.163C145.163 13.6136 145.073 14.5563 145.073 15.1548V22.0081H146.54V11.4439H145.088L140.405 18.2822C140.031 18.8508 139.507 19.8384 139.507 19.8384H139.477C139.477 19.8384 139.567 18.8957 139.567 18.2971V11.4439H138.085V22.0081ZM82.4982 34.6661C82.4982 37.7635 84.6379 40.1876 87.9149 40.1876C89.7853 40.1876 91.1021 39.4095 91.9999 38.5117L91.2069 37.4493C90.354 38.3022 89.1419 38.8259 87.9598 38.8259C85.5058 38.8259 84.0244 36.8957 84.0244 34.6512C84.0244 32.4216 85.4759 30.611 87.9299 30.611C89.0222 30.611 90.2043 31.0749 90.9824 31.7632L91.7306 30.6559C90.7131 29.6833 89.2317 29.2643 87.87 29.2643C84.7277 29.2643 82.4982 31.5986 82.4982 34.6661ZM93.8673 40.0081H100.272V38.7212H95.3487V35.3245H99.1344V34.0377H95.3487V30.7308H100.017V29.4439H93.8673V40.0081ZM101.909 40.0081H103.391L103.9 33.3493C103.959 32.7059 103.929 31.7632 103.929 31.7632H103.959C103.959 31.7632 104.289 32.7807 104.528 33.3493L106.623 38.1077H107.94L110.05 33.3493C110.289 32.7658 110.618 31.7932 110.618 31.7932H110.648C110.648 31.7932 110.618 32.7059 110.678 33.3493L111.187 40.0081H112.653L111.8 29.4439H110.259L107.82 35.1599C107.581 35.7435 107.296 36.5814 107.296 36.5814H107.266C107.266 36.5814 106.997 35.7435 106.758 35.1599L104.319 29.4439H102.777L101.909 40.0081ZM115.041 40.0081H121.445V38.7212H116.522V35.3245H120.308V34.0377H116.522V30.7308H121.191V29.4439H115.041V40.0081ZM127.767 28.9501C128.934 28.9501 129.981 28.2618 129.981 27.0348V26.8103H128.829V27.0049C128.829 27.6782 128.29 28.0074 127.767 28.0074C127.243 28.0074 126.719 27.6782 126.719 27.0198V26.8103H125.552V27.0348C125.552 28.2618 126.615 28.9501 127.767 28.9501ZM123.487 40.0081H124.939L129.652 33.1548C130.026 32.5713 130.535 31.6136 130.535 31.6136H130.565C130.565 31.6136 130.475 32.5563 130.475 33.1548V40.0081H131.942V29.4439H130.49L125.807 36.2822C125.432 36.8508 124.909 37.8384 124.909 37.8384H124.879C124.879 37.8384 124.969 36.8957 124.969 36.2971V29.4439H123.487V40.0081ZM134.739 40.0081H136.22V35.3694H141.712V40.0081H143.178V29.4439H141.712V34.0826H136.22V29.4439H134.739V40.0081ZM154.326 40.0081H155.792V29.4439H154.326V40.0081ZM145.962 40.0081H149.687C151.528 40.0081 152.83 38.7062 152.83 36.746C152.83 34.6362 151.468 33.4242 149.613 33.4242H147.443V29.4439H145.962V40.0081ZM147.443 38.7212V34.711H149.418C150.585 34.711 151.333 35.5041 151.333 36.746C151.333 37.973 150.63 38.7212 149.448 38.7212H147.443ZM162.866 28.9501C164.034 28.9501 165.081 28.2618 165.081 27.0348V26.8103H163.929V27.0049C163.929 27.6782 163.39 28.0074 162.866 28.0074C162.343 28.0074 161.819 27.6782 161.819 27.0198V26.8103H160.652V27.0348C160.652 28.2618 161.714 28.9501 162.866 28.9501ZM158.587 40.0081H160.038L164.752 33.1548C165.126 32.5713 165.635 31.6136 165.635 31.6136H165.665C165.665 31.6136 165.575 32.5563 165.575 33.1548V40.0081H167.041V29.4439H165.59L160.906 36.2822C160.532 36.8508 160.008 37.8384 160.008 37.8384H159.979C159.979 37.8384 160.068 36.8957 160.068 36.2971V29.4439H158.587V40.0081ZM82.4832 52.6512C82.4832 55.7635 84.8624 58.1876 87.9149 58.1876C90.9675 58.1876 93.3317 55.7635 93.3317 52.6512C93.3317 49.6136 90.9675 47.2643 87.9149 47.2643C84.8624 47.2643 82.4832 49.6136 82.4832 52.6512ZM84.0095 52.6512C84.0095 50.3618 85.7452 48.611 87.9149 48.611C90.0696 48.611 91.8054 50.3618 91.8054 52.6512C91.8054 55.0154 90.0696 56.8259 87.9149 56.8259C85.7452 56.8259 84.0095 55.0154 84.0095 52.6512ZM97.4614 58.0081H98.9279V48.7308H102.564V47.4439H93.8253V48.7308H97.4614V58.0081ZM104.198 58.0081H110.603V56.7212H105.68V53.3245H109.466V52.0377H105.68V48.7308H110.348V47.4439H104.198V58.0081ZM111.433 56.7661V58.1278C114.35 57.9632 115.248 55.0303 115.248 49.9578V48.7308H118.525V58.0081H120.007V47.4439H113.842V49.9428C113.842 54.2373 113.213 56.5267 111.433 56.7661ZM122.786 58.0081H126.572C128.412 58.0081 129.729 56.7062 129.729 54.746C129.729 52.6362 128.352 51.4242 126.512 51.4242H124.267V47.4439H122.786V58.0081ZM124.267 56.7212V52.711H126.302C127.469 52.711 128.218 53.5041 128.218 54.746C128.218 55.973 127.514 56.7212 126.317 56.7212H124.267Z" fill="#C19B76"/>
</svg>
