<svg width="241" height="67" viewBox="0 0 241 67" fill="none" xmlns="http://www.w3.org/2000/svg">
<path d="M10.6725 40.8197L18.4032 35.3659C21.4035 33.2506 24.4054 31.1387 27.4088 29.0302C27.72 28.8123 27.7426 28.6178 27.6279 28.2951C25.3415 21.865 23.0601 15.4336 20.7837 9.00092L19.1309 4.34288C19.1018 4.25872 19.0792 4.17268 19.0303 4.00903C20.9501 5.38372 22.8031 6.70884 24.6552 8.03583C27.9432 10.3924 31.2283 12.7522 34.5107 15.115C34.7422 15.2882 34.918 15.5248 35.0165 15.7958C36.0506 18.8295 37.05 21.8743 38.0804 24.9071C38.2139 25.2989 38.1509 25.5112 37.8124 25.7571C34.5307 28.148 31.2568 30.5501 27.9908 32.9635C27.862 33.057 27.7454 33.1692 27.6241 33.273L27.6636 33.4039C27.9983 33.4039 28.3339 33.4086 28.6686 33.4039C31.1863 33.3684 33.704 33.3322 36.2217 33.2954C37.5501 33.2749 38.8795 33.2571 40.207 33.2188C40.5313 33.2094 40.6705 33.3216 40.7711 33.6284C41.5382 36.0261 42.3298 38.4173 43.097 40.8151C43.1632 41.0353 43.1632 41.27 43.097 41.4903C41.0945 47.6517 39.0838 53.8113 37.065 59.969C37.0472 60.0242 37.0218 60.0766 36.9654 60.215C36.6626 59.2985 36.3844 58.4643 36.1098 57.6283C34.3023 52.1046 32.4978 46.5797 30.6965 41.0535C30.5752 40.6795 30.3938 40.5401 29.9961 40.5495C27.9015 40.5962 25.8059 40.6187 23.7103 40.6523C21.8968 40.6804 20.0833 40.715 18.2697 40.7459C16.1272 40.7795 13.9855 40.8057 11.8429 40.8441C11.4584 40.8506 11.0739 40.8974 10.6894 40.9254L10.6725 40.8197ZM6.92601 40.903C7.06609 40.903 7.22121 40.8095 7.34249 40.7206C13.1933 36.5255 19.0438 32.3304 24.894 28.1352C25.161 27.9482 25.208 27.7855 25.1027 27.4862C22.1995 19.2618 19.3008 11.0389 16.4064 2.81764C16.3539 2.64013 16.2587 2.47804 16.129 2.34538C15.2415 1.57107 14.3381 0.814525 13.3791 0C13.4299 0.187032 13.4525 0.2899 13.4863 0.389962C16.1544 8.37623 18.8276 16.3609 21.5057 24.3441C21.6693 24.8294 21.5837 25.0782 21.1748 25.3774C14.8075 30.0302 8.4481 34.6944 2.09651 39.3702C1.38577 39.893 0.676901 40.4176 0 40.9161C2.3071 40.9114 4.61703 40.9151 6.92601 40.903ZM69.874 41.0086C66.2564 38.556 62.6375 36.1047 59.0173 33.6545C58.8912 33.5659 58.7448 33.5103 58.5914 33.4928C58.0151 33.4526 57.4379 33.4198 56.8606 33.418C54.389 33.4095 51.9164 33.4245 49.4448 33.4011C49.033 33.4011 48.8807 33.5479 48.7632 33.9127C48.137 35.8812 47.4855 37.8403 46.8453 39.8042C46.7127 40.211 46.5896 40.6215 46.4354 41.1134H70C69.96 41.0762 69.9179 41.0413 69.874 41.0086ZM36.4774 14.7222C38.7639 16.3556 41.0515 17.9884 43.3405 19.6206C43.8227 19.9638 44.3173 20.5558 44.8033 20.5558C45.311 20.5558 45.8375 19.9947 46.3122 19.6271C46.5678 19.4334 46.7665 19.1751 46.8876 18.879C48.7472 13.7668 50.5961 8.6521 52.4344 3.53491C52.4814 3.40492 52.5143 3.26932 52.5924 3.00654L36.2452 14.5249C36.3618 14.6231 36.4182 14.682 36.4774 14.7222ZM34.8792 66.3636C35.2301 65.5653 35.5254 64.7438 35.7629 63.9051C35.8353 63.6593 35.8372 63.3982 35.7686 63.1514C34.599 59.4631 33.4188 55.7783 32.228 52.0968C31.2302 48.9909 30.2293 45.8858 29.2252 42.7817C29.1763 42.6293 29.0212 42.4076 28.9037 42.3992C28.3161 42.36 27.7247 42.3815 27.0384 42.3815C29.6765 50.4482 32.2778 58.4064 34.8792 66.3636ZM49.9872 27.186C49.9872 26.5006 49.9872 25.816 49.9872 25.1287C49.9825 25.0509 49.9731 24.9735 49.959 24.8968C49.8049 23.739 48.8976 22.9806 47.7177 23.0264C47.1779 23.0369 46.663 23.2547 46.2809 23.6341C45.8987 24.0136 45.6788 24.5253 45.6673 25.0623C45.6344 26.4781 45.6325 27.8968 45.6673 29.3126C45.6658 29.6903 45.7726 30.0605 45.9751 30.38C46.1775 30.6995 46.4673 30.955 46.8105 31.1165C48.2875 31.8646 49.9026 30.894 49.9825 29.1994C50.0145 28.5308 49.9882 27.8603 49.9882 27.1907L49.9872 27.186ZM48.9427 29.0087C48.9278 29.2857 48.8592 29.5572 48.7406 29.8082C48.5526 30.1963 48.1963 30.345 47.7713 30.3319C47.3464 30.3188 47.007 30.115 46.8547 29.7213C46.7447 29.4317 46.6853 29.1255 46.6789 28.816C46.6582 27.7275 46.6685 26.638 46.6732 25.5495C46.6764 25.3788 46.6956 25.2088 46.7306 25.0417C46.865 24.3721 47.2872 24 47.87 24.0261C48.4529 24.0523 48.9089 24.5208 48.939 25.182C48.9691 25.8432 48.9456 26.5193 48.9456 27.1888H48.9521C48.9521 27.7958 48.9728 28.4027 48.9427 29.0087ZM41.5852 29.7736C42.3176 28.8029 43.0471 27.8313 43.7851 26.8653C44.1815 26.3572 44.3726 25.7202 44.321 25.0791C44.2458 23.7989 43.3423 22.9788 42.0261 23.0218C40.804 23.0657 39.9418 24.0046 39.9757 25.3092H40.9901C41.0051 25.1792 41.0098 25.1025 41.023 25.0286C41.1386 24.4021 41.542 24.0346 42.1296 24.0205C42.7171 24.0065 43.128 24.3731 43.2577 24.9978C43.3752 25.5448 43.1769 26.004 42.8535 26.4276C41.9932 27.5554 41.1612 28.7029 40.2615 29.8008C39.8742 30.2749 39.9118 30.7471 39.9729 31.2671H44.2834V30.2992H41.2139C41.3934 30.043 41.4856 29.9055 41.5852 29.7736ZM52.7437 29.7736C53.4752 28.8029 54.2047 27.8313 54.9427 26.8653C55.3393 26.3573 55.5307 25.7203 55.4795 25.0791C55.4034 23.7989 54.5009 22.9788 53.1837 23.0218C51.9615 23.0657 51.1004 24.0046 51.1333 25.3092H52.1458C52.1608 25.1792 52.1655 25.1025 52.1797 25.0286C52.2953 24.4021 52.6986 24.0346 53.2853 24.0205C53.8719 24.0065 54.2846 24.3731 54.4181 24.9978C54.5356 25.5448 54.3373 26.004 54.0139 26.4276C53.1536 27.5554 52.3216 28.7029 51.4228 29.8008C51.0346 30.2749 51.0722 30.7471 51.1342 31.2671H55.4438V30.2992H52.3714C52.5538 30.043 52.6478 29.9055 52.7419 29.7736H52.7437ZM58.4842 29.7736C59.2157 28.8029 59.9452 27.8313 60.6832 26.8653C61.0798 26.3573 61.2712 25.7203 61.22 25.0791C61.1439 23.7989 60.2413 22.9788 58.9242 23.0218C57.702 23.0657 56.8409 24.0046 56.8738 25.3092H57.8863C57.9013 25.1792 57.906 25.1025 57.9201 25.0286C58.0358 24.4021 58.4391 24.0346 59.0258 24.0205C59.6124 24.0065 60.0251 24.3731 60.1539 24.9978C60.2714 25.5448 60.0731 26.004 59.7497 26.4276C58.8894 27.5554 58.0574 28.7029 57.1586 29.8008C56.7703 30.2749 56.808 30.7471 56.87 31.2671H61.1805V30.2992H58.1119C58.2887 30.043 58.3827 29.9055 58.4842 29.7736Z" fill="#C19B76"/>
<path d="M86.1914 13.6696C87.1211 13.5414 87.7836 12.8842 88.179 11.6981C88.5744 10.512 88.772 8.73282 88.772 6.36059V3.68382H95.3758V15H93.789V5.06228H90.2787V6.37662C90.2787 9.24039 89.9688 11.3936 89.3491 12.8361C88.74 14.2787 87.6874 15.0427 86.1914 15.1282V13.6696ZM97.9842 14.455L98.7055 13.2529C99.197 13.6269 99.6298 13.8139 100.004 13.8139C100.314 13.8139 100.559 13.7124 100.741 13.5093C100.933 13.2956 101.115 12.9751 101.286 12.5476L96.8141 3.68382H98.5612L101.318 9.37396L101.959 10.8646H101.991C102.152 10.341 102.312 9.84948 102.472 9.38999L104.572 3.68382H106.239L102.632 12.9163C102.034 14.4337 101.174 15.1923 100.052 15.1923C99.3787 15.1923 98.6895 14.9466 97.9842 14.455ZM110.529 10.6563C109.385 10.6563 108.53 10.3731 107.964 9.80673C107.398 9.24039 107.115 8.42293 107.115 7.35436V3.68382H108.717V7.01776C108.717 7.74439 108.888 8.2947 109.23 8.6687C109.572 9.03202 110.117 9.21367 110.865 9.21367C111.806 9.21367 112.66 8.95722 113.43 8.4443V3.68382H115.033V15H113.43V10.4158L113.462 9.88688H113.43C112.457 10.3998 111.49 10.6563 110.529 10.6563ZM117.945 15V3.68382H119.531V13.6215H123.715V3.68382H125.302V13.6215H129.485V3.68382H131.056V15H117.945ZM133.971 15V3.68382H135.558V11.0249L135.462 12.6759H135.494C135.868 11.9706 136.189 11.4149 136.456 11.0089L141.473 3.68382H143.027V15H141.457V7.6589L141.553 6.00796H141.521C141.157 6.69185 140.842 7.24216 140.575 7.6589L135.526 15H133.971ZM150.528 3.15487C149.876 3.15487 149.315 2.97322 148.845 2.6099C148.386 2.2359 148.156 1.73367 148.156 1.10322V0.862793H149.406V1.08719C149.406 1.41845 149.518 1.68025 149.743 1.87259C149.967 2.05425 150.229 2.14507 150.528 2.14507C150.838 2.14507 151.105 2.05425 151.329 1.87259C151.554 1.68025 151.666 1.4131 151.666 1.07116V0.862793H152.9V1.10322C152.9 1.73367 152.671 2.2359 152.211 2.6099C151.752 2.97322 151.191 3.15487 150.528 3.15487ZM145.944 15V3.68382H147.531V11.0249L147.435 12.6759H147.467C147.841 11.9706 148.161 11.4149 148.428 11.0089L153.445 3.68382H155V15H153.429V7.6589L153.525 6.00796H153.493C153.13 6.69185 152.815 7.24216 152.548 7.6589L147.499 15H145.944ZM86.8005 28.2778C86.8005 26.6215 87.3402 25.2431 88.4194 24.1424C89.5094 23.0418 90.8878 22.4915 92.5548 22.4915C94.2752 22.4915 95.6536 22.9884 96.6902 23.9821L95.8887 25.1683C95.472 24.7943 94.9644 24.4951 94.366 24.2707C93.7783 24.0463 93.1959 23.9341 92.6189 23.9341C91.3366 23.9341 90.3161 24.3455 89.5574 25.1683C88.8094 25.9911 88.4354 27.0222 88.4354 28.2618C88.4354 29.512 88.8201 30.5699 89.5895 31.4354C90.3589 32.301 91.3794 32.7337 92.651 32.7337C93.2814 32.7337 93.9012 32.6055 94.5103 32.3491C95.13 32.0819 95.6697 31.7186 96.1292 31.2591L96.9787 32.3971C95.7819 33.5939 94.3233 34.1923 92.6029 34.1923C90.8825 34.1923 89.4826 33.6313 88.4034 32.5093C87.3348 31.3767 86.8005 29.9661 86.8005 28.2778ZM98.8988 34V22.6838H105.486V24.0623H100.486V27.6046H104.541V28.9831H100.486V32.6215H105.759V34H98.8988ZM107.433 34L108.363 22.6838H110.014L112.626 28.8067L113.171 30.3295H113.203C113.407 29.7311 113.594 29.2235 113.764 28.8067L116.377 22.6838H118.028L118.942 34H117.371L116.826 26.8673L116.794 25.2003H116.762C116.527 25.8949 116.324 26.4505 116.153 26.8673L113.893 31.9644H112.482L110.238 26.8673L109.629 25.1683H109.597C109.618 25.8415 109.608 26.4078 109.565 26.8673L109.02 34H107.433ZM121.42 34V22.6838H128.007V24.0623H123.006V27.6046H127.062V28.9831H123.006V32.6215H128.28V34H121.42ZM134.971 22.1549C134.319 22.1549 133.758 21.9732 133.288 21.6099C132.828 21.2359 132.599 20.7337 132.599 20.1032V19.8628H133.849V20.0872C133.849 20.4185 133.961 20.6803 134.186 20.8726C134.41 21.0543 134.672 21.1451 134.971 21.1451C135.281 21.1451 135.548 21.0543 135.772 20.8726C135.997 20.6803 136.109 20.4131 136.109 20.0712V19.8628H137.343V20.1032C137.343 20.7337 137.113 21.2359 136.654 21.6099C136.194 21.9732 135.633 22.1549 134.971 22.1549ZM130.387 34V22.6838H131.974V30.0249L131.877 31.6759H131.909C132.283 30.9706 132.604 30.4149 132.871 30.0089L137.888 22.6838H139.443V34H137.872V26.6589L137.968 25.008H137.936C137.573 25.6919 137.258 26.2422 136.991 26.6589L131.942 34H130.387ZM142.359 34V22.6838H143.946V27.6527H149.829V22.6838H151.399V34H149.829V29.0311H143.946V34H142.359ZM163.261 34V22.6838H164.831V34H163.261ZM154.301 34V22.6838H155.887V26.9474H158.212C159.227 26.9474 160.055 27.268 160.696 27.9091C161.337 28.5396 161.658 29.4051 161.658 30.5058C161.658 31.553 161.343 32.3971 160.712 33.0383C160.092 33.6794 159.286 34 158.292 34H154.301ZM155.887 32.6215H158.035C158.666 32.6215 159.157 32.4345 159.51 32.0605C159.873 31.6865 160.055 31.1683 160.055 30.5058C160.055 29.8433 159.868 29.3143 159.494 28.9189C159.131 28.5236 158.634 28.3259 158.003 28.3259H155.887V32.6215ZM172.329 22.1549C171.677 22.1549 171.116 21.9732 170.646 21.6099C170.186 21.2359 169.957 20.7337 169.957 20.1032V19.8628H171.207V20.0872C171.207 20.4185 171.319 20.6803 171.543 20.8726C171.768 21.0543 172.03 21.1451 172.329 21.1451C172.639 21.1451 172.906 21.0543 173.13 20.8726C173.355 20.6803 173.467 20.4131 173.467 20.0712V19.8628H174.701V20.1032C174.701 20.7337 174.471 21.2359 174.012 21.6099C173.552 21.9732 172.991 22.1549 172.329 22.1549ZM167.745 34V22.6838H169.331V30.0249L169.235 31.6759H169.267C169.641 30.9706 169.962 30.4149 170.229 30.0089L175.246 22.6838H176.801V34H175.23V26.6589L175.326 25.008H175.294C174.931 25.6919 174.616 26.2422 174.348 26.6589L169.299 34H167.745ZM182.939 28.2618C182.939 26.6375 183.5 25.2698 184.622 24.1585C185.744 23.0471 187.122 22.4915 188.757 22.4915C190.392 22.4915 191.765 23.0471 192.877 24.1585C193.999 25.2698 194.56 26.6375 194.56 28.2618C194.56 29.9287 193.999 31.3339 192.877 32.4773C191.765 33.6207 190.392 34.1923 188.757 34.1923C187.122 34.1923 185.744 33.6207 184.622 32.4773C183.5 31.3339 182.939 29.9287 182.939 28.2618ZM184.574 28.2618C184.574 29.5227 184.98 30.5859 185.792 31.4515C186.604 32.3063 187.593 32.7337 188.757 32.7337C189.922 32.7337 190.905 32.3063 191.707 31.4515C192.519 30.5859 192.925 29.5227 192.925 28.2618C192.925 27.0436 192.519 26.0178 191.707 25.1843C190.905 24.3508 189.922 23.9341 188.757 23.9341C187.593 23.9341 186.604 24.3508 185.792 25.1843C184.98 26.0178 184.574 27.0436 184.574 28.2618ZM198.903 34V24.0623H195.008V22.6838H204.369V24.0623H200.474V34H198.903ZM206.04 34V22.6838H212.627V24.0623H207.627V27.6046H211.682V28.9831H207.627V32.6215H212.9V34H206.04ZM213.709 32.6696C214.638 32.5414 215.301 31.8842 215.696 30.6981C216.092 29.512 216.289 27.7328 216.289 25.3606V22.6838H222.893V34H221.306V24.0623H217.796V25.3766C217.796 28.2404 217.486 30.3936 216.866 31.8361C216.257 33.2787 215.205 34.0427 213.709 34.1282V32.6696ZM225.79 34V22.6838H227.377V26.9474H229.781C230.796 26.9474 231.624 27.268 232.265 27.9091C232.907 28.5396 233.227 29.4051 233.227 30.5058C233.227 31.553 232.912 32.3971 232.282 33.0383C231.651 33.6794 230.839 34 229.845 34H225.79ZM227.377 32.6215H229.573C230.214 32.6215 230.711 32.4345 231.063 32.0605C231.427 31.6865 231.608 31.1683 231.608 30.5058C231.608 29.8433 231.421 29.3143 231.047 28.9189C230.684 28.5236 230.187 28.3259 229.557 28.3259H227.377V32.6215Z" fill="#2D2D2D"/>
<path d="M86.4727 50.9999L87.9797 43.2669H93.8867L92.3687 50.9999H91.6097L92.9957 43.9489H88.6067L87.2317 50.9999H86.4727ZM94.3958 47.7879C94.3958 46.9739 94.6158 46.2076 95.0558 45.4889C95.5031 44.7629 96.0825 44.1909 96.7938 43.7729C97.5125 43.3476 98.2605 43.1349 99.0378 43.1349C100.035 43.1349 100.846 43.4392 101.469 44.0479C102.092 44.6566 102.404 45.4376 102.404 46.3909C102.404 47.2196 102.18 48.0042 101.733 48.7449C101.286 49.4782 100.703 50.0612 99.9838 50.4939C99.2725 50.9192 98.5318 51.1319 97.7618 51.1319C96.7645 51.1319 95.9541 50.8202 95.3308 50.1969C94.7075 49.5736 94.3958 48.7706 94.3958 47.7879ZM95.1878 47.7659C95.1878 48.5432 95.4261 49.1812 95.9028 49.6799C96.3795 50.1712 96.9991 50.4169 97.7618 50.4169C98.7445 50.4169 99.6318 50.0209 100.424 49.2289C101.216 48.4296 101.612 47.4946 101.612 46.4239C101.612 45.6686 101.37 45.0526 100.886 44.5759C100.409 44.0919 99.7931 43.8499 99.0378 43.8499C98.0478 43.8499 97.1568 44.2386 96.3648 45.0159C95.5801 45.7932 95.1878 46.7099 95.1878 47.7659ZM105.266 50.9999L106.773 43.2669H109.259C109.619 43.2669 109.927 43.3146 110.183 43.4099C110.491 43.5272 110.73 43.7142 110.898 43.9709C111.074 44.2276 111.162 44.5356 111.162 44.8949C111.162 45.3642 111.038 45.7786 110.788 46.1379C110.546 46.4972 110.224 46.7576 109.82 46.9189V46.9409C110.114 47.0436 110.345 47.2306 110.513 47.5019C110.689 47.7659 110.777 48.0849 110.777 48.4589C110.777 49.0089 110.634 49.4892 110.348 49.8999C110.07 50.3032 109.703 50.6002 109.248 50.7909C108.918 50.9302 108.555 50.9999 108.159 50.9999H105.266ZM106.883 46.6219H108.753C109.201 46.6219 109.582 46.4642 109.897 46.1489C110.22 45.8336 110.381 45.4376 110.381 44.9609C110.381 44.6456 110.286 44.3999 110.095 44.2239C109.905 44.0406 109.63 43.9489 109.27 43.9489H107.4L106.883 46.6219ZM106.157 50.3179H108.137C108.445 50.3179 108.713 50.2666 108.94 50.1639C109.256 50.0172 109.509 49.7936 109.699 49.4929C109.89 49.1922 109.985 48.8476 109.985 48.4589C109.985 48.0922 109.872 47.8062 109.644 47.6009C109.417 47.3882 109.109 47.2819 108.72 47.2819H106.751L106.157 50.3179ZM111.66 50.9999L113.167 43.2669H117.523L117.38 43.9489H113.794L113.244 46.7649H116.181L116.049 47.4469H113.123L112.551 50.3179H116.335L116.214 50.9999H111.66ZM117.408 50.9999L118.915 43.2669H121.445C121.951 43.2669 122.358 43.3549 122.666 43.5309C123.275 43.8609 123.579 44.4036 123.579 45.1589C123.579 45.7456 123.425 46.2699 123.117 46.7319C122.809 47.1939 122.41 47.5312 121.918 47.7439C121.559 47.8906 121.185 47.9639 120.796 47.9639H118.761L118.167 50.9999H117.408ZM118.893 47.2819H120.719C121.057 47.2819 121.357 47.2232 121.621 47.1059C121.973 46.9519 122.256 46.7062 122.468 46.3689C122.681 46.0316 122.787 45.6392 122.787 45.1919C122.787 44.7959 122.663 44.4916 122.413 44.2789C122.164 44.0589 121.812 43.9489 121.357 43.9489H119.542L118.893 47.2819ZM123.796 47.8099C123.796 46.9739 124.012 46.1966 124.445 45.4779C124.877 44.7519 125.446 44.1799 126.15 43.7619C126.861 43.3439 127.609 43.1349 128.394 43.1349C128.907 43.1349 129.409 43.2192 129.901 43.3879C130.399 43.5492 130.803 43.7986 131.111 44.1359L130.627 44.6749C130.062 44.1249 129.321 43.8499 128.405 43.8499C127.378 43.8499 126.483 44.2422 125.721 45.0269C124.965 45.8042 124.588 46.7246 124.588 47.7879C124.588 48.5579 124.819 49.1886 125.281 49.6799C125.75 50.1712 126.373 50.4169 127.151 50.4169C127.627 50.4169 128.104 50.3252 128.581 50.1419C129.057 49.9586 129.483 49.7092 129.857 49.3939L130.231 49.9879C129.864 50.3179 129.391 50.5929 128.812 50.8129C128.24 51.0256 127.679 51.1319 127.129 51.1319C126.109 51.1319 125.299 50.8239 124.698 50.2079C124.096 49.5919 123.796 48.7926 123.796 47.8099ZM131.119 50.9999L132.626 43.2669H133.396L132.318 48.7999L132.054 49.8229H132.076C132.435 49.3682 132.728 49.0126 132.956 48.7559L137.939 43.2669H138.676L137.158 50.9999H136.399L137.477 45.4669L137.73 44.4439H137.708C137.37 44.8839 137.088 45.2322 136.861 45.4889L131.856 50.9999H131.119ZM138.995 50.9999L140.502 43.2669H141.272L140.194 48.7999L139.93 49.8229H139.952C140.311 49.3682 140.604 49.0126 140.832 48.7559L145.815 43.2669H146.552L145.034 50.9999H144.275L145.353 45.4669L145.606 44.4439H145.584C145.246 44.8839 144.964 45.2322 144.737 45.4889L139.732 50.9999H138.995ZM149.235 50.9999L150.742 43.2669H151.512L150.819 46.7869H155.307L155.989 43.2669H156.748L155.241 50.9999H154.471L155.164 47.4689H150.687L149.994 50.9999H149.235ZM156.254 50.9999L160.566 43.2669H161.402L162.733 50.9999H161.963L161.556 48.5359H158.443L157.079 50.9999H156.254ZM158.784 47.8759H161.446L160.984 45.0709L160.863 44.0589H160.841C160.65 44.4916 160.489 44.8289 160.357 45.0709L158.784 47.8759ZM163.666 50.9999L165.162 43.2669H165.932L164.557 50.3179H168.77L170.145 43.2669H170.904L169.54 50.3179H170.409L169.98 52.5399H169.265L169.562 50.9999H163.666ZM171.466 50.9999L172.973 43.2669H173.743L172.665 48.7999L172.401 49.8229H172.423C172.782 49.3682 173.076 49.0126 173.303 48.7559L178.286 43.2669H179.023L177.505 50.9999H176.746L177.824 45.4669L178.077 44.4439H178.055C177.718 44.8839 177.435 45.2322 177.208 45.4889L172.203 50.9999H171.466ZM179.529 47.7879C179.529 46.9739 179.749 46.2076 180.189 45.4889C180.636 44.7629 181.215 44.1909 181.927 43.7729C182.645 43.3476 183.393 43.1349 184.171 43.1349C185.168 43.1349 185.978 43.4392 186.602 44.0479C187.225 44.6566 187.537 45.4376 187.537 46.3909C187.537 47.2196 187.313 48.0042 186.866 48.7449C186.418 49.4782 185.835 50.0612 185.117 50.4939C184.405 50.9192 183.665 51.1319 182.895 51.1319C181.897 51.1319 181.087 50.8202 180.464 50.1969C179.84 49.5736 179.529 48.7706 179.529 47.7879ZM180.321 47.7659C180.321 48.5432 180.559 49.1812 181.036 49.6799C181.512 50.1712 182.132 50.4169 182.895 50.4169C183.877 50.4169 184.765 50.0209 185.557 49.2289C186.349 48.4296 186.745 47.4946 186.745 46.4239C186.745 45.6686 186.503 45.0526 186.019 44.5759C185.542 44.0919 184.926 43.8499 184.171 43.8499C183.181 43.8499 182.29 44.2386 181.498 45.0159C180.713 45.7932 180.321 46.7099 180.321 47.7659ZM188.034 50.9999L189.541 43.2669H190.311L189.618 46.7869H194.106L194.788 43.2669H195.547L194.04 50.9999H193.27L193.963 47.4689H189.486L188.793 50.9999H188.034ZM195.053 50.9999L199.365 43.2669H200.201L201.532 50.9999H200.762L200.355 48.5359H197.242L195.878 50.9999H195.053ZM197.583 47.8759H200.245L199.783 45.0709L199.662 44.0589H199.64C199.449 44.4916 199.288 44.8289 199.156 45.0709L197.583 47.8759ZM207.535 50.9999H206.765L208.151 43.9489H205.401L205.181 45.0709C204.991 46.0169 204.793 46.8272 204.587 47.5019C204.382 48.1766 204.133 48.7926 203.839 49.3499C203.546 49.8999 203.201 50.3216 202.805 50.6149C202.409 50.9009 201.955 51.0586 201.441 51.0879L201.584 50.3729C202.244 50.2849 202.802 49.7972 203.256 48.9099C203.718 48.0226 204.111 46.7429 204.433 45.0709L204.796 43.2669H209.042L207.535 50.9999ZM209.362 50.9999L210.869 43.2669H211.639L211.023 46.3909H212.728C213.315 46.3909 213.788 46.5522 214.147 46.8749C214.507 47.1976 214.686 47.6559 214.686 48.2499C214.686 49.0346 214.422 49.6909 213.894 50.2189C213.366 50.7396 212.736 50.9999 212.002 50.9999H209.362ZM210.253 50.3179H211.98C212.523 50.3179 212.978 50.1346 213.344 49.7679C213.711 49.3939 213.894 48.9026 213.894 48.2939C213.894 47.9126 213.777 47.6156 213.542 47.4029C213.308 47.1829 212.989 47.0729 212.585 47.0729H210.88L210.253 50.3179ZM215.283 50.9999L216.79 43.2669H217.56L216.867 46.7869H221.355L222.037 43.2669H222.796L221.289 50.9999H220.519L221.212 47.4689H216.735L216.042 50.9999H215.283ZM223.303 47.7879C223.303 46.9739 223.523 46.2076 223.963 45.4889C224.41 44.7629 224.989 44.1909 225.701 43.7729C226.419 43.3476 227.167 43.1349 227.945 43.1349C228.942 43.1349 229.752 43.4392 230.376 44.0479C230.999 44.6566 231.311 45.4376 231.311 46.3909C231.311 47.2196 231.087 48.0042 230.64 48.7449C230.192 49.4782 229.609 50.0612 228.891 50.4939C228.179 50.9192 227.439 51.1319 226.669 51.1319C225.671 51.1319 224.861 50.8202 224.238 50.1969C223.614 49.5736 223.303 48.7706 223.303 47.7879ZM224.095 47.7659C224.095 48.5432 224.333 49.1812 224.81 49.6799C225.286 50.1712 225.906 50.4169 226.669 50.4169C227.651 50.4169 228.539 50.0209 229.331 49.2289C230.123 48.4296 230.519 47.4946 230.519 46.4239C230.519 45.6686 230.277 45.0526 229.793 44.5759C229.316 44.0919 228.7 43.8499 227.945 43.8499C226.955 43.8499 226.064 44.2386 225.272 45.0159C224.487 45.7932 224.095 46.7099 224.095 47.7659ZM236.461 42.9039C236.094 42.9039 235.783 42.8049 235.526 42.6069C235.277 42.4089 235.152 42.1522 235.152 41.8369C235.152 41.7269 235.174 41.5876 235.218 41.4189H235.856C235.827 41.5289 235.812 41.6352 235.812 41.7379C235.812 41.9286 235.874 42.0789 235.999 42.1889C236.131 42.2916 236.296 42.3429 236.494 42.3429C236.736 42.3429 236.949 42.2696 237.132 42.1229C237.323 41.9689 237.44 41.7342 237.484 41.4189H238.122C238.049 41.9469 237.854 42.3282 237.539 42.5629C237.231 42.7902 236.872 42.9039 236.461 42.9039ZM231.808 50.9999L233.315 43.2669H234.085L233.007 48.7999L232.743 49.8229H232.765C233.124 49.3682 233.418 49.0126 233.645 48.7559L238.628 43.2669H239.365L237.847 50.9999H237.088L238.166 45.4669L238.419 44.4439H238.397C238.06 44.8839 237.777 45.2322 237.55 45.4889L232.545 50.9999H231.808ZM86.4727 61.9999L87.9797 54.2669H92.0497L91.9177 54.9489H88.6067L87.2317 61.9999H86.4727ZM91.3558 58.7879C91.3558 57.9739 91.5758 57.2076 92.0158 56.4889C92.4631 55.7629 93.0424 55.1909 93.7538 54.7729C94.4724 54.3476 95.2204 54.1349 95.9978 54.1349C96.9951 54.1349 97.8054 54.4392 98.4288 55.0479C99.0521 55.6566 99.3638 56.4376 99.3638 57.3909C99.3638 58.2196 99.1401 59.0042 98.6928 59.7449C98.2454 60.4782 97.6624 61.0612 96.9438 61.4939C96.2324 61.9192 95.4918 62.1319 94.7218 62.1319C93.7244 62.1319 92.9141 61.8202 92.2908 61.1969C91.6674 60.5736 91.3558 59.7706 91.3558 58.7879ZM92.1478 58.7659C92.1478 59.5432 92.3861 60.1812 92.8628 60.6799C93.3394 61.1712 93.9591 61.4169 94.7218 61.4169C95.7044 61.4169 96.5918 61.0209 97.3838 60.2289C98.1758 59.4296 98.5718 58.4946 98.5718 57.4239C98.5718 56.6686 98.3298 56.0526 97.8458 55.5759C97.3691 55.0919 96.7531 54.8499 95.9978 54.8499C95.0078 54.8499 94.1168 55.2386 93.3248 56.0159C92.5401 56.7932 92.1478 57.7099 92.1478 58.7659ZM100.059 58.8099C100.059 57.9739 100.276 57.1966 100.708 56.4779C101.141 55.7519 101.709 55.1799 102.413 54.7619C103.125 54.3439 103.873 54.1349 104.657 54.1349C105.171 54.1349 105.673 54.2192 106.164 54.3879C106.663 54.5492 107.066 54.7986 107.374 55.1359L106.89 55.6749C106.326 55.1249 105.585 54.8499 104.668 54.8499C103.642 54.8499 102.747 55.2422 101.984 56.0269C101.229 56.8042 100.851 57.7246 100.851 58.7879C100.851 59.5579 101.082 60.1886 101.544 60.6799C102.014 61.1712 102.637 61.4169 103.414 61.4169C103.891 61.4169 104.368 61.3252 104.844 61.1419C105.321 60.9586 105.746 60.7092 106.12 60.3939L106.494 60.9879C106.128 61.3179 105.655 61.5929 105.075 61.8129C104.503 62.0256 103.942 62.1319 103.392 62.1319C102.373 62.1319 101.563 61.8239 100.961 61.2079C100.36 60.5919 100.059 59.7926 100.059 58.8099ZM109.197 61.9999L110.572 54.9489H107.8L107.932 54.2669H114.235L114.114 54.9489H111.331L109.967 61.9999H109.197ZM113.625 61.9999L115.132 54.2669H115.902L114.824 59.7999L114.56 60.8229H114.582C114.942 60.3682 115.235 60.0126 115.462 59.7559L120.445 54.2669H121.182L119.664 61.9999H118.905L119.983 56.4669L120.236 55.4439H120.214C119.877 55.8839 119.595 56.2322 119.367 56.4889L114.362 61.9999H113.625ZM121.501 61.9999L123.008 54.2669H123.778L123.085 57.7869H127.573L128.255 54.2669H129.014L127.507 61.9999H126.737L127.43 58.4689H122.953L122.26 61.9999H121.501ZM129.334 61.9999L130.841 54.2669H131.611L130.533 59.7999L130.269 60.8229H130.291C130.65 60.3682 130.944 60.0126 131.171 59.7559L136.154 54.2669H136.891L135.373 61.9999H134.614L135.692 56.4669L135.945 55.4439H135.923C135.586 55.8839 135.303 56.2322 135.076 56.4889L130.071 61.9999H129.334ZM139.553 58.9529C138.922 58.9529 138.445 58.8099 138.123 58.5239C137.8 58.2306 137.639 57.8272 137.639 57.3139C137.639 57.1306 137.661 56.9362 137.705 56.7309L138.189 54.2669H138.959L138.497 56.6099C138.46 56.7712 138.442 56.9472 138.442 57.1379C138.442 57.8786 138.863 58.2489 139.707 58.2489C140.447 58.2489 141.162 58.0326 141.852 57.5999L142.501 54.2669H143.271L141.764 61.9999H140.994L141.621 58.7659L141.709 58.4029H141.687C140.931 58.7696 140.22 58.9529 139.553 58.9529ZM143.581 61.9999L145.088 54.2669H145.858L145.165 57.7869H149.653L150.335 54.2669H151.094L149.587 61.9999H148.817L149.51 58.4689H145.033L144.34 61.9999H143.581ZM151.601 58.7879C151.601 57.9739 151.821 57.2076 152.261 56.4889C152.709 55.7629 153.288 55.1909 153.999 54.7729C154.718 54.3476 155.466 54.1349 156.243 54.1349C157.241 54.1349 158.051 54.4392 158.674 55.0479C159.298 55.6566 159.609 56.4376 159.609 57.3909C159.609 58.2196 159.386 59.0042 158.938 59.7449C158.491 60.4782 157.908 61.0612 157.189 61.4939C156.478 61.9192 155.737 62.1319 154.967 62.1319C153.97 62.1319 153.16 61.8202 152.536 61.1969C151.913 60.5736 151.601 59.7706 151.601 58.7879ZM152.393 58.7659C152.393 59.5432 152.632 60.1812 153.108 60.6799C153.585 61.1712 154.205 61.4169 154.967 61.4169C155.95 61.4169 156.837 61.0209 157.629 60.2289C158.421 59.4296 158.817 58.4946 158.817 57.4239C158.817 56.6686 158.575 56.0526 158.091 55.5759C157.615 55.0919 156.999 54.8499 156.243 54.8499C155.253 54.8499 154.362 55.2386 153.57 56.0159C152.786 56.7932 152.393 57.7099 152.393 58.7659ZM164.759 53.9039C164.393 53.9039 164.081 53.8049 163.824 53.6069C163.575 53.4089 163.45 53.1522 163.45 52.8369C163.45 52.7269 163.472 52.5876 163.516 52.4189H164.154C164.125 52.5289 164.11 52.6352 164.11 52.7379C164.11 52.9286 164.173 53.0789 164.297 53.1889C164.429 53.2916 164.594 53.3429 164.792 53.3429C165.034 53.3429 165.247 53.2696 165.43 53.1229C165.621 52.9689 165.738 52.7342 165.782 52.4189H166.42C166.347 52.9469 166.153 53.3282 165.837 53.5629C165.529 53.7902 165.17 53.9039 164.759 53.9039ZM160.106 61.9999L161.613 54.2669H162.383L161.305 59.7999L161.041 60.8229H161.063C161.423 60.3682 161.716 60.0126 161.943 59.7559L166.926 54.2669H167.663L166.145 61.9999H165.386L166.464 56.4669L166.717 55.4439H166.695C166.358 55.8839 166.076 56.2322 165.848 56.4889L160.843 61.9999H160.106ZM170.347 61.9999L171.854 54.2669H177.761L176.243 61.9999H175.484L176.87 54.9489H172.481L171.106 61.9999H170.347ZM178.083 61.9999L179.59 54.2669H182.12C182.626 54.2669 183.033 54.3549 183.341 54.5309C183.95 54.8609 184.254 55.4036 184.254 56.1589C184.254 56.7456 184.1 57.2699 183.792 57.7319C183.484 58.1939 183.085 58.5312 182.593 58.7439C182.234 58.8906 181.86 58.9639 181.471 58.9639H179.436L178.842 61.9999H178.083ZM179.568 58.2819H181.394C181.732 58.2819 182.032 58.2232 182.296 58.1059C182.648 57.9519 182.931 57.7062 183.143 57.3689C183.356 57.0316 183.462 56.6392 183.462 56.1919C183.462 55.7959 183.338 55.4916 183.088 55.2789C182.839 55.0589 182.487 54.9489 182.032 54.9489H180.217L179.568 58.2819ZM184.272 61.9999L185.779 54.2669H190.135L189.992 54.9489H186.406L185.856 57.7649H188.793L188.661 58.4469H185.735L185.163 61.3179H188.947L188.826 61.9999H184.272ZM189.724 61.9999L191.858 54.2669H192.617L193.761 58.8099L193.948 59.7559H193.97C194.176 59.3966 194.363 59.0812 194.531 58.8099L197.446 54.2669H198.26L197.369 61.9999H196.61L197.248 56.5879L197.435 55.5099H197.413C197.171 55.9646 196.966 56.3239 196.797 56.5879L194.201 60.5589H193.486L192.441 56.5879L192.232 55.4879H192.21C192.137 55.9426 192.064 56.3092 191.99 56.5879L190.494 61.9999H189.724ZM198.917 61.9999L200.424 54.2669H201.194L200.116 59.7999L199.852 60.8229H199.874C200.234 60.3682 200.527 60.0126 200.754 59.7559L205.737 54.2669H206.474L204.956 61.9999H204.197L205.275 56.4669L205.528 55.4439H205.506C205.169 55.8839 204.887 56.2322 204.659 56.4889L199.654 61.9999H198.917ZM206.793 61.9999L208.3 54.2669H209.07L207.992 59.7999L207.728 60.8229H207.75C208.11 60.3682 208.403 60.0126 208.63 59.7559L213.613 54.2669H214.35L212.832 61.9999H212.073L213.151 56.4669L213.404 55.4439H213.382C213.045 55.8839 212.763 56.2322 212.535 56.4889L207.53 61.9999H206.793Z" fill="#858585"/>
</svg>
