<svg width="24" height="31" viewBox="0 0 24 31" fill="none" xmlns="http://www.w3.org/2000/svg">
<path d="M4.2 24.7286C3.85714 24.7286 3.55714 24.6 3.3 24.3429C3.04286 24.0857 2.91429 23.7857 2.91429 23.4429C2.91429 23.1 3.04286 22.8 3.3 22.5429C3.55714 22.2857 3.85714 22.1571 4.2 22.1571C4.54286 22.1571 4.84286 22.2857 5.1 22.5429C5.35714 22.8 5.48571 23.1 5.48571 23.4429C5.48571 23.7857 5.35714 24.0857 5.1 24.3429C4.84286 24.6 4.54286 24.7286 4.2 24.7286ZM12 24.7286C11.6571 24.7286 11.3571 24.6 11.1 24.3429C10.8429 24.0857 10.7143 23.7857 10.7143 23.4429C10.7143 23.1 10.8429 22.8 11.1 22.5429C11.3571 22.2857 11.6571 22.1571 12 22.1571C12.3429 22.1571 12.6429 22.2857 12.9 22.5429C13.1571 22.8 13.2857 23.1 13.2857 23.4429C13.2857 23.7857 13.1571 24.0857 12.9 24.3429C12.6429 24.6 12.3429 24.7286 12 24.7286ZM19.8 24.7286C19.4571 24.7286 19.1571 24.6 18.9 24.3429C18.6429 24.0857 18.5143 23.7857 18.5143 23.4429C18.5143 23.1 18.6429 22.8 18.9 22.5429C19.1571 22.2857 19.4571 22.1571 19.8 22.1571C20.1429 22.1571 20.4429 22.2857 20.7 22.5429C20.9571 22.8 21.0857 23.1 21.0857 23.4429C21.0857 23.7857 20.9571 24.0857 20.7 24.3429C20.4429 24.6 20.1429 24.7286 19.8 24.7286ZM0 18.3V15.7286C0 12.6714 1.03571 10 3.10714 7.71429C5.17857 5.42857 7.71429 4.12857 10.7143 3.81429V0H13.2857V3.81429C16.2857 4.12857 18.8214 5.42857 20.8929 7.71429C22.9643 10 24 12.6714 24 15.7286V18.3H0ZM2.57143 15.7286H21.4286C21.4286 13.1286 20.5071 10.9071 18.6643 9.06429C16.8214 7.22143 14.6 6.3 12 6.3C9.4 6.3 7.17857 7.22143 5.33571 9.06429C3.49286 10.9071 2.57143 13.1286 2.57143 15.7286ZM4.2 30.8571C3.85714 30.8571 3.55714 30.7286 3.3 30.4714C3.04286 30.2143 2.91429 29.9143 2.91429 29.5714C2.91429 29.2286 3.04286 28.9286 3.3 28.6714C3.55714 28.4143 3.85714 28.2857 4.2 28.2857C4.54286 28.2857 4.84286 28.4143 5.1 28.6714C5.35714 28.9286 5.48571 29.2286 5.48571 29.5714C5.48571 29.9143 5.35714 30.2143 5.1 30.4714C4.84286 30.7286 4.54286 30.8571 4.2 30.8571ZM12 30.8571C11.6571 30.8571 11.3571 30.7286 11.1 30.4714C10.8429 30.2143 10.7143 29.9143 10.7143 29.5714C10.7143 29.2286 10.8429 28.9286 11.1 28.6714C11.3571 28.4143 11.6571 28.2857 12 28.2857C12.3429 28.2857 12.6429 28.4143 12.9 28.6714C13.1571 28.9286 13.2857 29.2286 13.2857 29.5714C13.2857 29.9143 13.1571 30.2143 12.9 30.4714C12.6429 30.7286 12.3429 30.8571 12 30.8571ZM19.8 30.8571C19.4571 30.8571 19.1571 30.7286 18.9 30.4714C18.6429 30.2143 18.5143 29.9143 18.5143 29.5714C18.5143 29.2286 18.6429 28.9286 18.9 28.6714C19.1571 28.4143 19.4571 28.2857 19.8 28.2857C20.1429 28.2857 20.4429 28.4143 20.7 28.6714C20.9571 28.9286 21.0857 29.2286 21.0857 29.5714C21.0857 29.9143 20.9571 30.2143 20.7 30.4714C20.4429 30.7286 20.1429 30.8571 19.8 30.8571Z" fill="#343434"/>
</svg>
