<svg width="24" height="19" viewBox="0 0 24 19" fill="none" xmlns="http://www.w3.org/2000/svg">
<path d="M5.8 11.9375L4.225 10.3625C5.39167 9.19582 6.6125 8.32082 7.8875 7.73749C9.1625 7.15415 10.5333 6.86249 12 6.86249C13.4667 6.86249 14.8375 7.15415 16.1125 7.73749C17.3875 8.32082 18.6083 9.19582 19.775 10.3625L18.2 11.9375C17.1833 10.9208 16.1583 10.1958 15.125 9.76249C14.0917 9.32915 13.05 9.11249 12 9.11249C10.95 9.11249 9.90833 9.32915 8.875 9.76249C7.84167 10.1958 6.81667 10.9208 5.8 11.9375ZM1.575 7.71249L0 6.13749C1.55 4.55415 3.35417 3.27915 5.4125 2.31249C7.47083 1.34582 9.66667 0.862488 12 0.862488C14.3333 0.862488 16.5292 1.34582 18.5875 2.31249C20.6458 3.27915 22.45 4.55415 24 6.13749L22.425 7.71249C20.9583 6.31249 19.3542 5.19582 17.6125 4.36249C15.8708 3.52915 14 3.11249 12 3.11249C10 3.11249 8.12917 3.52915 6.3875 4.36249C4.64583 5.19582 3.04167 6.31249 1.575 7.71249ZM12 18.1375L15.7 14.4125C15.2167 13.9292 14.6625 13.55 14.0375 13.275C13.4125 13 12.7333 12.8625 12 12.8625C11.2667 12.8625 10.5875 13 9.9625 13.275C9.3375 13.55 8.78333 13.9292 8.3 14.4125L12 18.1375Z" fill="#343434"/>
</svg>
