<svg width="24" height="24" viewBox="0 0 24 24" fill="none" xmlns="http://www.w3.org/2000/svg">
<path d="M2.33333 24C2.04444 24 1.80556 23.9056 1.61667 23.7167C1.42778 23.5278 1.33333 23.2889 1.33333 23V21.3333H0V16.3333C0 16.0444 0.0944446 15.8056 0.283333 15.6167C0.472222 15.4278 0.711111 15.3333 1 15.3333H2.66667V5C2.66667 3.57778 3.18889 2.38889 4.23333 1.43333C5.27778 0.477778 6.53333 0 8 0C9.4 0 10.5833 0.483333 11.55 1.45C12.5167 2.41667 13 3.6 13 5V19C13 19.8444 13.2889 20.5556 13.8667 21.1333C14.4444 21.7111 15.1556 22 16 22C16.9111 22 17.6944 21.7167 18.35 21.15C19.0056 20.5833 19.3333 19.8667 19.3333 19V8.66667H17.6667C17.3778 8.66667 17.1389 8.57222 16.95 8.38333C16.7611 8.19445 16.6667 7.95556 16.6667 7.66667V2.66667H18V1C18 0.711111 18.0944 0.472222 18.2833 0.283333C18.4722 0.0944446 18.7111 0 19 0H21.6667C21.9556 0 22.1944 0.0944446 22.3833 0.283333C22.5722 0.472222 22.6667 0.711111 22.6667 1V2.66667H24V7.66667C24 7.95556 23.9056 8.19445 23.7167 8.38333C23.5278 8.57222 23.2889 8.66667 23 8.66667H21.3333V19C21.3333 20.4222 20.8111 21.6111 19.7667 22.5667C18.7222 23.5222 17.4667 24 16 24C14.6 24 13.4167 23.5167 12.45 22.55C11.4833 21.5833 11 20.4 11 19V5C11 4.15556 10.7111 3.44444 10.1333 2.86667C9.55556 2.28889 8.84444 2 8 2C7.08889 2 6.30556 2.28333 5.65 2.85C4.99444 3.41667 4.66667 4.13333 4.66667 5V15.3333H6.33333C6.62222 15.3333 6.86111 15.4278 7.05 15.6167C7.23889 15.8056 7.33333 16.0444 7.33333 16.3333V21.3333H6V23C6 23.2889 5.90556 23.5278 5.71667 23.7167C5.52778 23.9056 5.28889 24 5 24H2.33333Z" fill="#343434"/>
</svg>
