<svg width="24" height="21" viewBox="0 0 24 21" fill="none" xmlns="http://www.w3.org/2000/svg">
<path d="M4.17273 20.3182C3.95455 20.3182 3.76364 20.2364 3.6 20.0727C3.43636 19.9091 3.35455 19.7182 3.35455 19.5V18.3546H3C2.16364 18.3546 1.45455 18.0636 0.872727 17.4818C0.290909 16.9 0 16.1909 0 15.3546V8.70001C0 7.77273 0.281818 7.06819 0.845455 6.58637C1.40909 6.10455 2.07273 5.86364 2.83636 5.86364V3.51819C2.83636 2.68182 3.1 2.00001 3.62727 1.47273C4.15455 0.94546 4.83636 0.681824 5.67273 0.681824H18.3545C19.1909 0.681824 19.8682 0.94546 20.3864 1.47273C20.9045 2.00001 21.1636 2.68182 21.1636 3.51819V5.86364C21.9273 5.86364 22.5909 6.10455 23.1545 6.58637C23.7182 7.06819 24 7.77273 24 8.70001V15.3546C24 16.1909 23.7091 16.9 23.1273 17.4818C22.5455 18.0636 21.8364 18.3546 21 18.3546H20.6455V19.5C20.6455 19.7182 20.5636 19.9091 20.4 20.0727C20.2364 20.2364 20.0455 20.3182 19.8273 20.3182C19.6091 20.3182 19.4182 20.2364 19.2545 20.0727C19.0909 19.9091 19.0091 19.7182 19.0091 19.5V18.3546H4.99091V19.5C4.99091 19.7182 4.90909 19.9091 4.74545 20.0727C4.58182 20.2364 4.39091 20.3182 4.17273 20.3182ZM3 16.7182H21C21.3636 16.7182 21.6818 16.5818 21.9545 16.3091C22.2273 16.0364 22.3636 15.7182 22.3636 15.3546V8.70001C22.3636 8.33637 22.2545 8.04546 22.0364 7.82728C21.8182 7.6091 21.5273 7.50001 21.1636 7.50001C20.8 7.50001 20.5091 7.6091 20.2909 7.82728C20.0727 8.04546 19.9636 8.33637 19.9636 8.70001V13.5H4.03636V8.70001C4.03636 8.33637 3.92727 8.04546 3.70909 7.82728C3.49091 7.6091 3.2 7.50001 2.83636 7.50001C2.47273 7.50001 2.18182 7.6091 1.96364 7.82728C1.74545 8.04546 1.63636 8.33637 1.63636 8.70001V15.3546C1.63636 15.7182 1.77273 16.0364 2.04545 16.3091C2.31818 16.5818 2.63636 16.7182 3 16.7182ZM5.67273 11.8636H18.3273V8.70001C18.3273 8.13637 18.4545 7.66819 18.7091 7.29546C18.9636 6.92273 19.2364 6.62728 19.5273 6.4091V3.51819C19.5273 3.15455 19.4182 2.86364 19.2 2.64546C18.9818 2.42728 18.6909 2.31819 18.3273 2.31819H5.67273C5.30909 2.31819 5.01818 2.42728 4.8 2.64546C4.58182 2.86364 4.47273 3.15455 4.47273 3.51819V6.4091C4.76364 6.62728 5.03636 6.92273 5.29091 7.29546C5.54545 7.66819 5.67273 8.13637 5.67273 8.70001V11.8636Z" fill="#343434"/>
</svg>
