<svg width="24" height="17" viewBox="0 0 24 17" fill="none" xmlns="http://www.w3.org/2000/svg">
<path d="M2.88 16.9H1.98L1.38 14.5H0V8.07997C0 7.55997 0.17 7.11998 0.51 6.75998C0.85 6.39998 1.28 6.21998 1.8 6.21998H2.58V1.89998C2.58 1.39998 2.755 0.974976 3.105 0.624976C3.455 0.274976 3.88 0.0999756 4.38 0.0999756H19.59C20.09 0.0999756 20.515 0.274976 20.865 0.624976C21.215 0.974976 21.39 1.39998 21.39 1.89998V6.21998H22.2C22.7 6.21998 23.125 6.39498 23.475 6.74498C23.825 7.09498 24 7.51998 24 8.01998V14.5H22.62L22.02 16.9H21.12L20.52 14.5H3.51L2.88 16.9ZM12.9 6.21998H19.59V1.89998H12.9V6.21998ZM4.38 6.21998H11.1V1.89998H4.38V6.21998ZM1.8 12.7H22.2V8.01998H1.8V12.7Z" fill="#343434"/>
</svg>
