<svg width="24" height="25" viewBox="0 0 24 25" fill="none" xmlns="http://www.w3.org/2000/svg">
<path fill-rule="evenodd" clip-rule="evenodd" d="M7.35 23.555C8.81 24.185 10.36 24.5 12 24.5C13.66 24.5 15.22 24.185 16.68 23.555C18.14 22.925 19.41 22.065 20.49 20.975C21.57 19.885 22.425 18.61 23.055 17.15C23.685 15.69 24 14.14 24 12.5C24 10.84 23.685 9.28 23.055 7.82C22.425 6.36 21.57 5.09 20.49 4.01C19.41 2.93 18.14 2.075 16.68 1.445C15.22 0.815 13.67 0.5 12.03 0.5C10.37 0.5 8.81 0.815 7.35 1.445C5.89 2.075 4.615 2.93 3.525 4.01C2.435 5.09 1.575 6.36 0.945 7.82C0.315 9.28 0 10.83 0 12.47C0 14.13 0.315 15.69 0.945 17.15C1.575 18.61 2.435 19.885 3.525 20.975C4.615 22.065 5.89 22.925 7.35 23.555ZM19.23 19.715C17.25 21.705 14.85 22.7 12.03 22.7C9.19 22.7 6.775 21.705 4.785 19.715C2.795 17.725 1.8 15.32 1.8 12.5C1.8 9.66 2.795 7.25 4.785 5.27C6.775 3.29 9.18 2.3 12 2.3C14.84 2.3 17.25 3.29 19.23 5.27C21.21 7.25 22.2 9.65 22.2 12.47C22.2 15.31 21.21 17.725 19.23 19.715ZM7.455 13.355C7.225 13.585 6.94 13.7 6.6 13.7C6.26 13.7 5.975 13.585 5.745 13.355C5.515 13.125 5.4 12.84 5.4 12.5C5.4 12.16 5.515 11.875 5.745 11.645C5.975 11.415 6.26 11.3 6.6 11.3C6.94 11.3 7.225 11.415 7.455 11.645C7.685 11.875 7.8 12.16 7.8 12.5C7.8 12.84 7.685 13.125 7.455 13.355ZM12.765 13.355C12.535 13.585 12.25 13.7 11.91 13.7C11.57 13.7 11.285 13.585 11.055 13.355C10.825 13.125 10.71 12.84 10.71 12.5C10.71 12.16 10.825 11.875 11.055 11.645C11.285 11.415 11.57 11.3 11.91 11.3C12.25 11.3 12.535 11.415 12.765 11.645C12.995 11.875 13.11 12.16 13.11 12.5C13.11 12.84 12.995 13.125 12.765 13.355ZM17.865 13.355C17.635 13.585 17.35 13.7 17.01 13.7C16.67 13.7 16.385 13.585 16.155 13.355C15.925 13.125 15.81 12.84 15.81 12.5C15.81 12.16 15.925 11.875 16.155 11.645C16.385 11.415 16.67 11.3 17.01 11.3C17.35 11.3 17.635 11.415 17.865 11.645C18.095 11.875 18.21 12.16 18.21 12.5C18.21 12.84 18.095 13.125 17.865 13.355Z" fill="#343434"/>
</svg>
