<svg width="42" height="32" viewBox="0 0 42 32" fill="none" xmlns="http://www.w3.org/2000/svg">
<path d="M7.60674 31.93V29.8102C7.60674 28.9993 7.10347 28.4683 6.23952 28.4683C5.80754 28.4683 5.33782 28.6083 5.01489 29.0693C4.76325 28.6823 4.40257 28.4683 3.86155 28.4683C3.50087 28.4683 3.1402 28.5753 2.85501 28.9623V28.5383H2.1001V31.93H2.85501V30.0572C2.85501 29.4562 3.17794 29.1722 3.68121 29.1722C4.18449 29.1722 4.43612 29.4891 4.43612 30.0572V31.93H5.19103V30.0572C5.19103 29.4562 5.55171 29.1722 6.01724 29.1722C6.52051 29.1722 6.77215 29.4891 6.77215 30.0572V31.93H7.60674ZM18.8046 28.5383H17.5799V27.5134H16.825V28.5383H16.1414V29.2092H16.825V30.7651C16.825 31.5431 17.148 32 18.0119 32C18.3348 32 18.6955 31.893 18.9472 31.753L18.7291 31.115C18.511 31.255 18.2594 31.292 18.079 31.292C17.7183 31.292 17.5757 31.078 17.5757 30.7281V29.2092H18.8004V28.5383H18.8046ZM25.2129 28.4642C24.7809 28.4642 24.4916 28.6782 24.3112 28.9581V28.5342H23.5563V31.9259H24.3112V30.016C24.3112 29.4521 24.5628 29.131 25.0326 29.131C25.1752 29.131 25.3555 29.1681 25.5023 29.201L25.7204 28.493C25.5694 28.4642 25.3555 28.4642 25.2129 28.4642ZM15.5291 28.8182C15.1684 28.5712 14.6651 28.4642 14.1241 28.4642C13.2602 28.4642 12.6856 28.8882 12.6856 29.5591C12.6856 30.123 13.1176 30.4441 13.8725 30.547L14.2332 30.584C14.6274 30.654 14.8455 30.761 14.8455 30.938C14.8455 31.185 14.5561 31.362 14.0528 31.362C13.5496 31.362 13.1511 31.185 12.8995 31.008L12.5388 31.5719C12.933 31.8559 13.4741 31.9959 14.0151 31.9959C15.0216 31.9959 15.6004 31.5349 15.6004 30.901C15.6004 30.3 15.1307 29.9831 14.4135 29.876L14.0528 29.839C13.7299 29.8019 13.4783 29.732 13.4783 29.522C13.4783 29.2751 13.7299 29.1351 14.1283 29.1351C14.5603 29.1351 14.9923 29.3121 15.2104 29.4191L15.5291 28.8182ZM35.6139 28.4642C35.1819 28.4642 34.8925 28.6782 34.7122 28.9581V28.5342H33.9573V31.9259H34.7122V30.016C34.7122 29.4521 34.9638 29.131 35.4335 29.131C35.5761 29.131 35.7565 29.1681 35.9033 29.201L36.1213 28.5012C35.9746 28.4642 35.7607 28.4642 35.6139 28.4642ZM25.9678 30.2341C25.9678 31.2591 26.6892 32 27.8048 32C28.308 32 28.6687 31.893 29.0294 31.6131L28.6687 31.0121C28.3793 31.2261 28.0941 31.329 27.767 31.329C27.1547 31.329 26.7227 30.9051 26.7227 30.2341C26.7227 29.5961 27.1547 29.1722 27.767 29.1392C28.09 29.1392 28.3793 29.2463 28.6687 29.4562L29.0294 28.8552C28.6687 28.5712 28.308 28.4683 27.8048 28.4683C26.6892 28.4642 25.9678 29.2092 25.9678 30.2341ZM32.9507 30.2341V28.5383H32.1958V28.9623C31.9442 28.6453 31.5835 28.4683 31.1138 28.4683C30.1408 28.4683 29.3859 29.2092 29.3859 30.2341C29.3859 31.2591 30.1408 32 31.1138 32C31.6171 32 31.9777 31.823 32.1958 31.506V31.93H32.9507V30.2341ZM30.1785 30.2341C30.1785 29.6332 30.5728 29.1392 31.2228 29.1392C31.8351 29.1392 32.2671 29.6003 32.2671 30.2341C32.2671 30.8351 31.8351 31.329 31.2228 31.329C30.577 31.292 30.1785 30.831 30.1785 30.2341ZM21.1448 28.4642C20.1382 28.4642 19.4169 29.1722 19.4169 30.23C19.4169 31.292 20.1382 31.9959 21.1825 31.9959C21.6858 31.9959 22.1891 31.8559 22.5875 31.5349L22.2268 31.0039C21.9374 31.2179 21.5768 31.3579 21.2203 31.3579C20.7506 31.3579 20.285 31.1438 20.176 30.547H22.7301C22.7301 30.44 22.7301 30.37 22.7301 30.263C22.7636 29.1722 22.1136 28.4642 21.1448 28.4642ZM21.1448 29.1022C21.6145 29.1022 21.9374 29.3862 22.0087 29.9131H20.2095C20.2808 29.4562 20.6038 29.1022 21.1448 29.1022ZM39.9001 30.2341V27.1964H39.1452V28.9623C38.8935 28.6453 38.5329 28.4683 38.0631 28.4683C37.0901 28.4683 36.3352 29.2092 36.3352 30.2341C36.3352 31.2591 37.0901 32 38.0631 32C38.5664 32 38.9271 31.823 39.1452 31.506V31.93H39.9001V30.2341ZM37.1279 30.2341C37.1279 29.6332 37.5221 29.1392 38.1722 29.1392C38.7845 29.1392 39.2165 29.6003 39.2165 30.2341C39.2165 30.8351 38.7845 31.329 38.1722 31.329C37.5221 31.292 37.1279 30.831 37.1279 30.2341ZM11.8552 30.2341V28.5383H11.1003V28.9623C10.8487 28.6453 10.488 28.4683 10.0183 28.4683C9.04526 28.4683 8.29035 29.2092 8.29035 30.2341C8.29035 31.2591 9.04526 32 10.0183 32C10.5215 32 10.8822 31.823 11.1003 31.506V31.93H11.8552V30.2341ZM9.04946 30.2341C9.04946 29.6332 9.44369 29.1392 10.0937 29.1392C10.7061 29.1392 11.138 29.6003 11.138 30.2341C11.138 30.8351 10.7061 31.329 10.0937 31.329C9.44369 31.292 9.04946 30.831 9.04946 30.2341Z" fill="white"/>
<path d="M26.6662 2.72375H15.3003V22.7418H26.6662V2.72375Z" fill="#FF5A00"/>
<path d="M16.0568 12.7328C16.0568 8.66572 18.0072 5.05603 21 2.72375C18.7974 1.02604 16.019 0 12.9884 0C5.80905 0 0 5.69473 0 12.7328C0 19.7709 5.80905 25.4656 12.9884 25.4656C16.019 25.4656 18.7974 24.4395 21 22.7418C18.003 20.4425 16.0568 16.7999 16.0568 12.7328Z" fill="#EB001B"/>
<path d="M42 12.7328C42 19.7709 36.191 25.4656 29.0116 25.4656C25.981 25.4656 23.2026 24.4395 21 22.7418C24.0306 20.4054 25.9432 16.7999 25.9432 12.7328C25.9432 8.66572 23.9928 5.05603 21 2.72375C23.1984 1.02604 25.9768 0 29.0074 0C36.191 0 42 5.73182 42 12.7328Z" fill="#F79E1B"/>
</svg>
