<svg width="70" height="20" viewBox="0 0 70 20" fill="none" xmlns="http://www.w3.org/2000/svg">
<path fill-rule="evenodd" clip-rule="evenodd" d="M6.47312 0.503242C7.0985 0.49952 8.95706 0.332953 9.74432 2.97682C10.2746 4.75777 11.1194 7.67503 12.2785 11.7286H12.7506C13.9937 7.45504 14.8477 4.53778 15.3125 2.97682C16.108 0.305412 18.0966 0.503295 18.892 0.503295L25.0292 0.503302V19.5H18.774V8.30491H18.3546L14.8677 19.5H10.1615L6.67457 8.29662H6.25512V19.5H0V0.503302L6.47312 0.503242ZM34.0114 0.503302V11.7067H34.5104L38.7519 2.49422C39.5753 0.660917 41.3301 0.503302 41.3301 0.503302H47.3832V19.5H40.9974V8.29662H40.4984L36.3401 17.5091C35.5167 19.3341 33.6787 19.5 33.6787 19.5H27.6256V0.503302H34.0114ZM69.4552 9.53066C68.5645 12.0424 65.7672 13.8412 62.6702 13.8412H55.9735V19.5H49.901V9.53066H69.4552Z" fill="#0F754E"/>
<path fill-rule="evenodd" clip-rule="evenodd" d="M62.963 0.503296H49.5825C49.901 4.73261 53.5612 8.35317 57.3503 8.35317H69.8771C70.6 4.83812 68.1115 0.503296 62.963 0.503296Z" fill="url(#paint0_linear_40_1819)"/>
<defs>
<linearGradient id="paint0_linear_40_1819" x1="70" y1="5.44121" x2="49.5825" y2="5.44121" gradientUnits="userSpaceOnUse">
<stop stop-color="#1F5CD7"/>
<stop offset="1" stop-color="#02AEFF"/>
</linearGradient>
</defs>
</svg>
