<svg width="126" height="60" viewBox="0 0 126 60" fill="none" xmlns="http://www.w3.org/2000/svg">
<path d="M22.0991 41.9836V20.7691L11.7481 38.1475L1.43118 20.7631V41.9836H0V18.1529H1.60356L11.7521 35.3167L22.035 18.1529H23.5684V41.9836H22.0991ZM59.5584 30.0823C59.5584 23.2809 54.453 18.1529 47.682 18.1529C41.1053 18.1529 35.9519 23.3692 35.9519 30.0201C35.9519 36.8414 41.0612 41.9836 47.8323 41.9836C54.4089 41.9836 59.5584 36.7572 59.5584 30.0823ZM58.2154 30.1465C58.2154 36.0951 53.7134 40.5792 47.7421 40.5792C41.7708 40.5792 37.2668 36.0128 37.2668 29.9579C37.2668 24.1055 41.8951 19.5252 47.8022 19.5252C53.6412 19.5252 58.2154 24.1918 58.2154 30.1585M92.5176 41.9956L86.3699 31.6371L86.9953 31.591C87.8151 31.5288 89.539 31.1897 90.7857 30.309C92.263 29.2476 93.3354 26.9525 93.3354 24.8539C93.3354 22.8476 92.2129 20.1311 90.3287 19.0918C88.9617 18.3395 88.2982 18.1509 85.9049 18.1509H71.9599V41.9836H73.4733V31.591H84.6982L90.8439 41.9836L92.5176 41.9956ZM73.4753 19.6616H84.9408C87.8753 19.6616 88.7773 19.9124 89.6833 20.4762C91.1085 21.3469 91.8882 22.8717 91.8882 24.7676C91.8882 26.5592 91.1145 28.2465 89.8677 29.1814C88.7512 30.006 87.4443 30.1465 84.9327 30.1465H73.4673L73.4753 19.6616ZM115.867 19.6616L120.814 21.1322L126 19.5894L125.525 18.2331L120.814 19.6375L115.857 18.1529L110.912 19.6215L106.202 18.2171L105.727 19.5733L110.912 21.1162L115.867 19.6616ZM115.867 40.527L120.814 41.9976L126 40.4568L125.525 39.0985L120.814 40.5029L115.857 39.0142L110.912 40.4848L106.202 39.0804L105.727 40.4387L110.912 41.9795L115.867 40.527ZM115.867 30.0943L120.814 31.5649L126 30.0241L125.525 28.6658L120.814 30.0702L115.857 28.5836L110.912 30.0542L106.202 28.6498L105.727 30.008L110.912 31.5489L115.867 30.0943ZM27.8619 58.2906C27.8619 57.2694 26.9318 56.8341 26.1381 56.7699C25.8595 56.7498 25.4746 56.7438 25.1018 56.7358L24.5365 56.7217C23.3339 56.6896 23.0833 56.164 23.0833 55.7286C23.0833 55.0344 23.7668 54.6312 24.4042 54.4867C24.6611 54.427 24.9243 54.3993 25.188 54.4045C26.09 54.4045 26.6352 54.6853 27.2746 55.0866L27.4751 54.8438C26.8499 54.3537 26.0783 54.088 25.2842 54.0895C24.9176 54.0858 24.5521 54.1317 24.1978 54.2259C23.861 54.3202 22.7606 54.7014 22.7606 55.7366C22.7606 56.9224 24.1256 57.0387 24.5425 57.0447H25.0076C25.4085 57.0447 25.8735 57.0447 26.106 57.0728C26.6352 57.119 27.5292 57.4279 27.5292 58.2947C27.5292 59.2978 26.3085 59.667 25.1639 59.667C24.0655 59.667 23.3359 59.3861 22.6002 58.6638L22.3777 58.8945C22.7288 59.2763 23.1658 59.5686 23.6526 59.7472C24.1231 59.9133 24.6188 59.9968 25.1178 59.994C26.3846 59.994 27.8619 59.5446 27.8619 58.2826M30.618 59.8575V57.3176H33.3341C33.9154 57.3176 34.3744 57.2193 34.5949 57.0508C34.7911 56.8945 34.9486 56.695 35.055 56.4677C35.1615 56.2404 35.2139 55.9916 35.2082 55.7407C35.216 55.5051 35.1739 55.2705 35.0848 55.0524C34.9957 54.8342 34.8615 54.6373 34.6911 54.4747C34.3744 54.1898 34.0597 54.1356 33.5947 54.1356H30.2893V59.8656L30.618 59.8575ZM30.618 54.4586H33.5947C34.4345 54.4586 34.8775 54.896 34.8775 55.7246C34.8911 55.9308 34.8525 56.1371 34.7652 56.3244C34.678 56.5116 34.5449 56.6739 34.3784 56.796C34.178 56.9264 33.8673 56.9785 33.3341 56.9785H30.62L30.618 54.4586ZM43.1158 59.8656L40.3597 54.1336H39.9488L37.1706 59.8656H37.5334L38.5677 57.7449H41.7167L42.753 59.8656H43.1158ZM40.1592 54.4647L41.5744 57.4179H38.7321L40.1592 54.4647ZM52.7873 59.2557L52.8615 59.1975L52.9256 59.2697C53.104 59.4703 53.2904 59.6589 53.4768 59.8495H53.9319L53.118 58.9607L53.1882 58.8765C53.4835 58.5319 53.744 58.1589 53.9659 57.763L53.6913 57.5624C53.495 57.9485 53.2401 58.3018 52.9356 58.6096L52.8615 58.6839L50.42 56.0416C50.2637 55.8771 50.0492 55.6544 50.0492 55.3815C50.0492 54.7255 50.9693 54.579 51.292 54.579C51.7637 54.5672 52.2296 54.6851 52.639 54.9201L52.7793 54.5951C52.3484 54.3182 51.8439 54.1784 51.3321 54.1938C50.6646 54.1938 49.7285 54.565 49.7285 55.3835C49.7285 55.7707 49.9831 56.0597 50.2296 56.3385L50.406 56.5392L50.2356 56.5933C49.1993 56.9224 48.6962 57.4701 48.6962 58.2646C48.6962 59.5285 50.0151 60 50.847 60C51.5626 60 52.1459 59.7733 52.7973 59.2396M50.6826 56.8421L52.6189 58.9226L52.5207 59.0069C52.3009 59.2169 52.0419 59.3816 51.7585 59.4914C51.4751 59.6012 51.1729 59.654 50.869 59.6469C50.1274 59.6469 49.0249 59.2757 49.0249 58.2545C49.0249 57.2815 50.1454 56.9946 50.6285 56.8742L50.6826 56.8421ZM65.3151 59.8515L63.8319 57.3537L64.0022 57.3397C64.3261 57.3134 64.6386 57.208 64.9123 57.0327C65.1037 56.8728 65.2576 56.6728 65.3633 56.4467C65.4689 56.2207 65.5237 55.9742 65.5236 55.7246C65.5236 55.2431 65.255 54.5951 64.806 54.3463C64.4773 54.1657 64.3169 54.1196 63.7416 54.1196H60.3742V59.8656H60.7129V57.3537H63.447L64.9323 59.8656L65.3151 59.8515ZM60.7209 54.4526H63.5071C64.2187 54.4526 64.4372 54.5148 64.6577 54.6532C64.8328 54.764 64.9755 54.9193 65.0709 55.1033C65.1664 55.2873 65.2112 55.4934 65.2009 55.7005C65.2059 55.906 65.1639 56.1099 65.078 56.2966C64.9922 56.4834 64.8649 56.648 64.7058 56.7779C64.4332 56.9785 64.1145 57.0126 63.5031 57.0126H60.7169L60.7209 54.4526ZM73.1145 59.8515V59.5245H68.5884V57.0668H70.9577V56.7398H68.5884V54.4847H72.9181V54.1416H68.2717V59.8656L73.1145 59.8515ZM80.6893 58.2465C80.6893 57.2113 79.7592 56.7699 78.9635 56.7037C78.6869 56.6816 78.302 56.6756 77.9312 56.6696L77.3639 56.6555C76.1613 56.6214 75.9107 56.0898 75.9107 55.6524C75.9107 54.9462 76.5942 54.5389 77.2316 54.3904C77.4885 54.3307 77.7517 54.303 78.0154 54.3082C78.9174 54.3082 79.4606 54.5931 80.102 55.0003L80.3025 54.7536C79.6789 54.2578 78.9059 53.9883 78.1096 53.9892C77.7433 53.9848 77.3783 54.0321 77.0252 54.1296C76.6884 54.2239 75.588 54.6111 75.588 55.6584C75.588 56.8622 76.951 56.9785 77.3699 56.9886H77.835C78.2359 56.9886 78.7009 56.9886 78.9334 57.0187C79.4626 57.0648 80.3566 57.3778 80.3566 58.2565C80.3566 59.2817 79.1359 59.6469 77.9913 59.6469C76.8929 59.6469 76.1633 59.362 75.4276 58.6337L75.2051 58.8685C75.5545 59.2554 75.9918 59.5527 76.48 59.7352C76.9504 59.9019 77.4461 59.9861 77.9452 59.9839C79.21 59.9839 80.6893 59.5285 80.6893 58.2485M88.8795 56.9886C88.8795 55.2832 87.5546 53.9972 85.7967 53.9972C85.4004 53.9881 85.0063 54.0583 84.6376 54.2037C84.2688 54.3491 83.9327 54.5668 83.6491 54.8439C83.3655 55.1211 83.1401 55.4521 82.986 55.8176C82.8319 56.1832 82.7523 56.5758 82.7519 56.9725C82.7519 58.6839 84.0768 59.9819 85.8347 59.9819C86.2317 59.9905 86.6264 59.9196 86.9956 59.7734C87.3648 59.6271 87.701 59.4086 87.9847 59.1305C88.2683 58.8524 88.4936 58.5203 88.6472 58.1539C88.8009 57.7875 88.8799 57.394 88.8795 56.9966M88.5548 57.0126C88.5548 58.5214 87.3762 59.6549 85.8107 59.6549C84.2452 59.6549 83.0666 58.4993 83.0666 56.9645C83.0666 55.4838 84.2813 54.3242 85.8287 54.3242C86.1852 54.3175 86.5394 54.3822 86.8705 54.5144C87.2016 54.6467 87.503 54.8438 87.757 55.0942C88.0109 55.3447 88.2123 55.6434 88.3493 55.9729C88.4863 56.3023 88.5562 56.6558 88.5548 57.0126ZM96.4143 59.8656L94.929 57.3678L95.1033 57.3537C95.4264 57.3264 95.7379 57.2211 96.0114 57.0468C96.201 56.8859 96.353 56.6854 96.4569 56.4594C96.5608 56.2334 96.614 55.9874 96.6127 55.7387C96.6127 55.2571 96.3441 54.6091 95.8951 54.3603C95.5664 54.1798 95.408 54.1336 94.8327 54.1336H91.4713V59.8656H91.804V57.3537H94.5361L96.0214 59.8656H96.4143ZM91.804 54.4667H94.5862C95.2998 54.4667 95.5183 54.5289 95.7388 54.6673C95.914 54.7778 96.0565 54.9331 96.1517 55.1172C96.2468 55.3014 96.2911 55.5076 96.28 55.7146C96.2853 55.9199 96.2437 56.1237 96.1582 56.3105C96.0728 56.4972 95.9457 56.6619 95.7869 56.792C95.5123 56.9926 95.1955 57.0267 94.5842 57.0267H91.804V54.4667ZM101.375 59.8656V54.4606H103.61V54.1336H98.7996V54.4606H101.059V59.8656H101.375ZM89.4227 3.89019L91.0363 2.32729L88.8074 2.00629L87.8051 0L86.8029 2.00629L84.588 2.3313L86.2016 3.8942L85.8207 6.10111L87.8131 5.05986L89.8056 6.10111L89.4227 3.89019ZM41.4321 2.3313L39.2031 2.0103L38.265 0.00401649L37.2107 2.0103L34.9837 2.3313L36.5873 3.8942L36.2065 6.10111L38.257 5.05986L40.1933 6.10111L39.8125 3.8942L41.4321 2.3313ZM47.3853 2.3313L48.9889 3.8942L48.608 6.10111L50.6125 5.05986L52.6049 6.10111L52.2241 3.8942L53.8376 2.3313L51.6087 2.0103L50.6065 0.00401649L49.6042 2.0103L47.3853 2.3313ZM59.7889 2.3313L61.3924 3.8942L61.0116 6.10111L63.016 5.05986L65.0085 6.10111L64.6276 3.8942L66.2412 2.3313L64.0122 2.0103L63.01 0.00401649L62.0078 2.0103L59.7889 2.3313ZM72.1904 2.3313L73.804 3.8942L73.4232 6.10111L75.4757 5.05986L77.41 6.10111L77.0292 3.8942L78.6327 2.3313L76.4038 2.0103L75.4677 0.00401649L74.4114 2.0103L72.1904 2.3313Z" fill="white"/>
</svg>
