<svg xmlns="http://www.w3.org/2000/svg" viewBox="0 0 294.34 98.01"><defs><style>.cls-1{fill:#5e5e5e;}</style></defs><title>More_logo_grey</title><g id="Слой_2" data-name="Слой 2"><g id="Слой_1-2" data-name="Слой 1"><polygon class="cls-1" points="52.23 55.79 52.23 6.12 27.77 46.81 3.38 6.11 3.38 55.79 0 55.79 0 0 3.78 0 27.76 40.19 52.06 0 55.69 0 55.69 55.79 52.23 55.79"/><path class="cls-1" d="M111.91,55.79c-16,0-28.08-12-28.08-28A27.46,27.46,0,0,1,111.55,0c16,0,28.08,12,28.08,27.93A27.49,27.49,0,0,1,111.91,55.79Zm-.07-52.58c-14,0-24.9,10.73-24.9,24.43,0,14.18,10.64,24.87,24.76,24.87S136.45,42,136.45,28.08A24.48,24.48,0,0,0,111.84,3.21Z"/><path class="cls-1" d="M212.4,55.79,197.88,31.46H171.35V55.79h-3.58V0h33c5.65,0,7.22.44,10.45,2.21,4.44,2.43,7.09,8.77,7.09,13.49,0,4.92-2.53,10.29-6,12.77a19.84,19.84,0,0,1-9,3l-1.48.11,14.53,24.22ZM171.35,28h27.1c5.93,0,9-.33,11.66-2.26a12.87,12.87,0,0,0,4.78-10.31c0-4.44-1.86-8-5.23-10-2.14-1.32-4.27-1.91-11.21-1.91h-27.1Z"/><polygon class="cls-1" points="258.7 6.95 246.45 3.34 247.57 0.17 258.7 3.44 270.39 0 282.08 3.44 293.21 0.17 294.34 3.34 282.08 6.95 270.39 3.51 258.7 6.95"/><polygon class="cls-1" points="258.7 55.79 246.45 52.19 247.57 49.01 258.7 52.28 270.39 48.84 282.08 52.28 293.21 49.01 294.34 52.19 282.08 55.79 270.39 52.35 258.7 55.79"/><polygon class="cls-1" points="258.7 31.37 246.45 27.77 247.57 24.59 258.7 27.86 270.39 24.42 282.08 27.86 293.21 24.59 294.34 27.77 282.08 31.37 270.39 27.93 258.7 31.37"/><path class="cls-1" d="M57.65,98a10.3,10.3,0,0,1-3.46-.57,7.72,7.72,0,0,1-3-2l.53-.54a7.84,7.84,0,0,0,6.06,2.34c2.7,0,5.59-.84,5.59-3.21,0-2-2.12-2.75-3.37-2.86-.55-.05-1.63-.06-2.59-.06h-1.1c-1,0-4.21-.29-4.21-3.06,0-2.42,2.6-3.32,3.4-3.53A9.59,9.59,0,0,1,58,84.14a8.42,8.42,0,0,1,5.18,1.76l-.47.57a8.43,8.43,0,0,0-4.93-1.6,7.53,7.53,0,0,0-1.85.19c-1.51.34-3.12,1.28-3.12,2.91,0,1,.6,2.25,3.44,2.33l1.34,0c.88,0,1.79,0,2.44.08,1.88.15,4.08,1.17,4.08,3.56C64.14,96.93,60.64,98,57.65,98Z"/><path class="cls-1" d="M69.87,97.66V84.26h7.81a3.44,3.44,0,0,1,2.59.79,3.9,3.9,0,0,1,1.22,3A3.8,3.8,0,0,1,80,91.08a5.45,5.45,0,0,1-3,.62H70.65v6Zm.78-6.74h6.41a4.69,4.69,0,0,0,2.47-.43A2.85,2.85,0,0,0,80.71,88c0-1.94-1-3-3-3h-7Z"/><path class="cls-1" d="M99.32,97.66l-2.45-5H89.44l-2.45,5h-.86L92.7,84.24h1l6.51,13.42Zm-9.5-5.73h6.72L93.2,85Z"/><path class="cls-1" d="M118.45,98c-2,0-5.09-1.1-5.09-4.06,0-1.86,1.19-3.14,3.64-3.91l.41-.13-.42-.48a3.49,3.49,0,0,1-1.18-2.23c0-1.92,2.22-2.79,3.8-2.79a6,6,0,0,1,3.42.92l-.33.76a6.14,6.14,0,0,0-3.18-.8c-.76,0-2.94.35-2.94,1.88a2.44,2.44,0,0,0,.88,1.54l5.77,6.18.18-.18a9.63,9.63,0,0,0,1.78-2.45l.65.46A16.39,16.39,0,0,1,124,95.34l-.17.2,1.94,2.08h-1.07c-.44-.45-.88-.89-1.3-1.36l-.15-.17-.17.14A6.9,6.9,0,0,1,118.45,98Zm-.52-7.36c-1.13.29-3.78,1-3.78,3.23s2.61,3.26,4.36,3.26a5.51,5.51,0,0,0,3.9-1.5l.23-.2-4.58-4.84Z"/><path class="cls-1" d="M151.75,97.66l-3.51-5.88h-6.46v5.88H141V84.24h7.94a4.13,4.13,0,0,1,2.51.53,3.94,3.94,0,0,1,1.7,3.23,4,4,0,0,1-1.44,3.06,4.76,4.76,0,0,1-2.15.72l-.41,0,3.51,5.85Zm-10-6.64h6.58a4.49,4.49,0,0,0,2.84-.55,3.14,3.14,0,0,0,1.17-2.52,2.73,2.73,0,0,0-1.28-2.46c-.52-.32-1-.47-2.72-.47h-6.58Z"/><polygon class="cls-1" points="159.64 97.66 159.64 84.26 170.62 84.26 170.62 85.06 160.39 85.06 160.39 90.34 165.97 90.34 165.97 91.11 160.39 91.11 160.39 96.89 171.07 96.89 171.07 97.66 159.64 97.66"/><path class="cls-1" d="M182.48,98a10.17,10.17,0,0,1-3.46-.58,7.71,7.71,0,0,1-3-2l.53-.55a7.78,7.78,0,0,0,6.06,2.37c2.7,0,5.59-.86,5.59-3.26,0-2.06-2.12-2.79-3.37-2.9-.55-.05-1.63-.06-2.59-.07h-1.1c-1,0-4.21-.29-4.21-3.11,0-2.46,2.6-3.36,3.4-3.58a9.46,9.46,0,0,1,2.56-.33,8.34,8.34,0,0,1,5.18,1.79l-.47.57a8.35,8.35,0,0,0-4.93-1.62,7.43,7.43,0,0,0-1.85.19c-1.51.34-3.12,1.3-3.12,3,0,1,.6,2.28,3.44,2.36l1.34,0c.88,0,1.79,0,2.44.08,1.88.15,4.08,1.19,4.08,3.61C189,96.91,185.47,98,182.48,98Z"/><path class="cls-1" d="M201.13,98a7,7,0,1,1,7.19-7A7,7,0,0,1,201.13,98Zm0-13.25a6.25,6.25,0,1,0,0,12.49A6.2,6.2,0,0,0,207.56,91,6.31,6.31,0,0,0,201.11,84.7Z"/><path class="cls-1" d="M225.24,97.66l-3.51-5.88h-6.46v5.88h-.8V84.24h7.94a4.13,4.13,0,0,1,2.51.53,3.94,3.94,0,0,1,1.7,3.23,4,4,0,0,1-1.44,3.06,4.76,4.76,0,0,1-2.15.72l-.41,0,3.51,5.85Zm-10-6.64h6.58a4.49,4.49,0,0,0,2.84-.55,3.14,3.14,0,0,0,1.17-2.52,2.73,2.73,0,0,0-1.28-2.46c-.52-.32-1-.47-2.72-.47h-6.58Z"/><polygon class="cls-1" points="237.13 97.66 237.13 85 231.79 85 231.79 84.24 243.16 84.24 243.16 85 237.9 85 237.9 97.66 237.13 97.66"/></g></g></svg>