<svg width="49" height="32" viewBox="0 0 49 32" fill="none" xmlns="http://www.w3.org/2000/svg">
<path fill-rule="evenodd" clip-rule="evenodd" d="M37.0035 2.91721L42.0777 1.47602L47.153 0.0348358C48.1679 -0.253603 49 1.28138 49 3.44467V15.2445C49 17.4077 48.1689 18.9417 47.153 18.6533L42.0777 17.2101L37.0035 15.7659C35.9886 15.4774 35.1575 14.1784 35.1575 12.8805V5.80059C35.1575 4.50262 35.9886 3.20565 37.0035 2.91721Z" fill="url(#paint0_linear_40_1820)"/>
<path fill-rule="evenodd" clip-rule="evenodd" d="M11.9965 2.91721L6.92629 1.47602L1.84601 0.0348358C0.832159 -0.253603 0 1.28138 0 3.44467V15.2445C0 17.4077 0.832159 18.9417 1.84601 18.6533L6.92629 17.2101L12.0006 15.7659C13.0154 15.4774 13.8456 14.1784 13.8456 12.8805V5.80059C13.8456 4.50262 13.0154 3.20565 12.0006 2.91721" fill="url(#paint1_linear_40_1820)"/>
<path fill-rule="evenodd" clip-rule="evenodd" d="M28.0795 2.91721L30.6161 1.47602L33.1548 0.0348358C33.6567 -0.253603 34.0773 1.28138 34.0773 3.44467V15.2445C34.0773 17.4077 33.6617 18.9417 33.1548 18.6533C32.3082 18.1719 31.462 17.6908 30.6161 17.2101L28.0795 15.7659C27.5726 15.4774 27.157 14.1784 27.157 12.8805V5.80059C27.157 4.50262 27.5716 3.20565 28.0795 2.91721Z" fill="url(#paint2_linear_40_1820)"/>
<path fill-rule="evenodd" clip-rule="evenodd" d="M20.9204 2.91721L18.3837 1.47602L15.8451 0.0348358C15.3432 -0.253603 14.9226 1.28138 14.9226 3.44467V15.2445C14.9226 17.4077 15.3382 18.9417 15.8451 18.6533L18.3837 17.2101L20.9204 15.7659C21.4273 15.4774 21.8429 14.1784 21.8429 12.8805V5.80059C21.8429 4.50262 21.4283 3.20565 20.9204 2.91721Z" fill="url(#paint3_linear_40_1820)"/>
<path fill-rule="evenodd" clip-rule="evenodd" d="M25.1786 2.91721L25.558 1.47602C25.6845 0.995964 25.8113 0.515568 25.9384 0.0348358C26.0137 -0.253603 26.077 1.28138 26.077 3.44467V15.2445C26.077 17.4077 26.0137 18.9417 25.9384 18.6533C25.8113 18.1719 25.6845 17.6908 25.558 17.2101L25.1786 15.7659C25.1023 15.4774 25.04 14.1784 25.04 12.8805V5.80059C25.04 4.50262 25.1023 3.20565 25.1786 2.91721Z" fill="url(#paint4_linear_40_1820)"/>
<path fill-rule="evenodd" clip-rule="evenodd" d="M23.8215 2.91721L23.4421 1.47602L23.0616 0.0348358C22.9853 -0.253603 22.9231 1.28138 22.9231 3.44467V15.2445C22.9231 17.4077 22.9853 18.9417 23.0616 18.6533C23.1881 18.1719 23.3149 17.6908 23.4421 17.2101L23.8215 15.7659C23.8978 15.4774 23.96 14.1784 23.96 12.8805V5.80059C23.96 4.50262 23.8978 3.20565 23.8215 2.91721Z" fill="url(#paint5_linear_40_1820)"/>
<path d="M42.8627 25.7725C42.7623 25.7554 42.6459 25.7423 42.5154 25.7312C42.3849 25.7201 42.2413 25.7171 42.0867 25.7171C41.6342 25.716 41.1825 25.7575 40.7376 25.8411C40.3665 25.9102 40.0025 26.0139 39.6505 26.1507V31.856H41.1562V27.0655C41.2669 27.0223 41.3821 26.9915 41.4995 26.9737C41.6354 26.953 41.7726 26.9425 41.9101 26.9424C42.03 26.9417 42.1497 26.9498 42.2684 26.9666C42.3759 26.9803 42.4823 27.0019 42.5866 27.0312L42.8627 25.7725ZM37.5907 28.1789L35.0812 28.5248C35.0797 28.2012 35.1439 27.8807 35.2699 27.5828C35.3649 27.3503 35.5285 27.1526 35.7386 27.0161C35.9487 26.8797 36.1953 26.811 36.4453 26.8194C36.6561 26.8143 36.8643 26.8669 37.0476 26.9717C37.2233 27.0778 37.3616 27.2365 37.4431 27.4255C37.547 27.6627 37.5987 27.9197 37.5947 28.1789H37.5907ZM39.0542 28.4461C39.0598 28.0678 39.0038 27.691 38.8886 27.3307C38.7828 27.0113 38.6119 26.7177 38.3867 26.4684C38.164 26.2256 37.8895 26.0367 37.5837 25.9157C37.2337 25.7793 36.8608 25.7119 36.4855 25.7171C36.0843 25.711 35.6863 25.7893 35.317 25.947C34.9821 26.0938 34.6846 26.3148 34.4467 26.5935C34.2008 26.8831 34.0154 27.2196 33.9017 27.5828C33.7727 27.9904 33.709 28.4159 33.713 28.8435C33.7079 29.2755 33.7734 29.7055 33.9067 30.1163C34.0268 30.4837 34.2228 30.8216 34.4819 31.1077C34.7427 31.393 35.0652 31.6145 35.4245 31.7551C35.8411 31.914 36.2838 31.9924 36.7294 31.9861C37.0124 31.9864 37.2951 31.9676 37.5756 31.9296C37.8321 31.8968 38.086 31.8462 38.3355 31.7783C38.5429 31.7219 38.7446 31.6459 38.9378 31.5514L38.5062 30.4148C38.3502 30.4952 38.1872 30.561 38.0193 30.6115C37.6376 30.7325 37.2401 30.7954 36.8398 30.798C36.5705 30.8026 36.303 30.7532 36.0528 30.6528C35.8262 30.5606 35.6283 30.4092 35.4797 30.2141C35.323 29.9987 35.2226 29.7473 35.1876 29.4829L39.0362 28.9585C39.0472 28.8697 39.0522 28.783 39.0562 28.6993C39.0603 28.6156 39.0583 28.5299 39.0583 28.4461H39.0542ZM33.0946 31.856V23.109H31.5889V31.856H33.0946ZM30.6493 31.856V23.109H29.1436V31.856H30.6493ZM27.0637 28.1789L24.5542 28.5248C24.5529 28.2013 24.6168 27.8809 24.7419 27.5828C24.842 27.3493 25.0081 27.1505 25.2197 27.011C25.4305 26.88 25.6746 26.8134 25.9224 26.8194C26.1332 26.8143 26.3414 26.8669 26.5247 26.9717C26.7004 27.0778 26.8387 27.2365 26.9202 27.4255C27.0227 27.6631 27.073 27.92 27.0677 28.1789H27.0637ZM28.5273 28.4461C28.5328 28.0678 28.4769 27.691 28.3616 27.3307C28.2564 27.0111 28.0854 26.7173 27.8597 26.4684C27.6371 26.2256 27.3625 26.0367 27.0567 25.9157C26.7067 25.7793 26.3339 25.7119 25.9585 25.7171C25.5587 25.7115 25.1621 25.7898 24.7941 25.947C24.4591 26.0936 24.1615 26.3146 23.9238 26.5935C23.6779 26.8833 23.4922 27.2197 23.3777 27.5828C23.249 27.9904 23.1849 28.4159 23.188 28.8435C23.183 29.2755 23.2484 29.7055 23.3817 30.1163C23.5022 30.4836 23.6982 30.8213 23.9569 31.1077C24.2178 31.393 24.5402 31.6145 24.8995 31.7551C25.3161 31.914 25.7589 31.9924 26.2045 31.9861C26.4875 31.9864 26.7702 31.9676 27.0507 31.9296C27.3071 31.8968 27.561 31.8462 27.8106 31.7783C28.018 31.7219 28.2196 31.6459 28.4128 31.5514L27.9812 30.4148C27.8253 30.4952 27.6623 30.561 27.4944 30.6115C27.1135 30.731 26.7169 30.7926 26.3179 30.794C26.0482 30.7986 25.7804 30.7493 25.5299 30.6488C25.3033 30.5566 25.1053 30.4051 24.9567 30.2101C24.8001 29.9947 24.6997 29.7433 24.6646 29.4789L28.5132 28.9544C28.5243 28.8657 28.5303 28.779 28.5333 28.6952C28.5363 28.6115 28.5313 28.5299 28.5313 28.4461H28.5273ZM22.9872 31.7783V30.5187C22.9223 30.5451 22.8551 30.5657 22.7865 30.5802C22.7089 30.5972 22.6299 30.6066 22.5506 30.6084C22.4307 30.6101 22.3115 30.5892 22.1993 30.5469C22.0976 30.5062 22.0119 30.4333 21.9553 30.3391C21.8895 30.2207 21.8576 30.0864 21.863 29.9509V26.9868H22.9872V25.8502H21.862V24.0792L20.3773 24.5129V25.8502H19.6124V26.9868H20.3773V30.0537C20.3773 30.6844 20.5159 31.1574 20.7929 31.4727C21.07 31.7881 21.4973 31.9467 22.0748 31.9488C22.1946 31.948 22.3143 31.9399 22.4331 31.9246C22.5403 31.911 22.6465 31.8911 22.7514 31.8651C22.8323 31.8429 22.9112 31.8139 22.9872 31.7783ZM19.1557 31.856V25.8502H17.65V31.856H19.1557ZM19.2671 24.0671C19.2672 23.9208 19.2261 23.7775 19.1487 23.6536C19.0722 23.5316 18.9652 23.4318 18.8385 23.3642C18.7043 23.292 18.5545 23.2543 18.4023 23.2543C18.2502 23.2543 18.1004 23.292 17.9662 23.3642C17.8394 23.4321 17.7322 23.5318 17.655 23.6536C17.5775 23.7775 17.5365 23.9208 17.5366 24.0671C17.5364 24.2144 17.5774 24.3587 17.655 24.4836C17.7322 24.607 17.8393 24.7086 17.9662 24.7791C18.0998 24.8531 18.2498 24.8919 18.4023 24.8919C18.5549 24.8919 18.7049 24.8531 18.8385 24.7791C18.9653 24.7089 19.0721 24.6072 19.1487 24.4836C19.2245 24.3582 19.2638 24.2139 19.2621 24.0671H19.2671ZM16.8228 31.856V27.7442C16.835 27.358 16.7382 26.9762 16.5438 26.6429C16.3393 26.3277 16.0401 26.0864 15.6895 25.9541C15.3051 25.7967 14.8192 25.7181 14.227 25.7171C13.7825 25.7144 13.3388 25.7546 12.902 25.8371C12.54 25.9081 12.1854 26.0131 11.8429 26.1507V31.856H13.3487V27.0766C13.4754 27.0298 13.6066 26.996 13.7401 26.9757C13.906 26.9474 14.0739 26.9333 14.2421 26.9333C14.5874 26.9333 14.8443 27.0221 15.027 27.1915C15.1181 27.284 15.189 27.3946 15.2351 27.5161C15.2812 27.6377 15.3017 27.7676 15.295 27.8975V31.853L16.8228 31.856ZM11.0399 31.5534V25.8502H9.53418V30.6084C9.41905 30.651 9.30003 30.6821 9.17883 30.7012C9.00656 30.7289 8.83232 30.7424 8.65786 30.7416C8.32559 30.7416 8.07364 30.6659 7.90399 30.5116C7.73435 30.3573 7.64903 30.1183 7.64903 29.7945V25.8502H6.14331V29.7613C6.14331 30.2796 6.23901 30.7029 6.4304 31.031C6.62183 31.3626 6.9194 31.6192 7.2746 31.7592C7.7172 31.9265 8.18819 32.005 8.66087 31.9901C8.96756 31.9903 9.27398 31.9715 9.57835 31.9336C9.85599 31.901 10.1313 31.8504 10.4025 31.7824C10.62 31.7272 10.8318 31.6512 11.0349 31.5554L11.0399 31.5534Z" fill="white"/>
<path d="M22.5497 30.6165C22.4298 30.6182 22.3106 30.5973 22.1984 30.555C22.0965 30.514 22.0108 30.4407 21.9544 30.3462C21.8885 30.2282 21.8565 30.0941 21.8621 29.9589V28.8052H20.3774V30.0588C20.3774 30.6881 20.516 31.1611 20.793 31.4778C21.0731 31.7955 21.4957 31.9528 22.0749 31.9528C22.1947 31.9525 22.3144 31.9444 22.4332 31.9286C22.5405 31.9155 22.6467 31.8956 22.7515 31.8691C22.8314 31.8482 22.9093 31.8202 22.9843 31.7854V30.5267C22.9192 30.5527 22.8521 30.5733 22.7836 30.5883C22.7066 30.6046 22.6283 30.6141 22.5497 30.6165Z" fill="url(#paint6_linear_40_1820)"/>
<path d="M19.1518 28.8052H17.6431V31.864H19.1518V28.8052Z" fill="url(#paint7_linear_40_1820)"/>
<path d="M16.8179 28.8052H15.2981V31.864H16.8179V28.8052Z" fill="url(#paint8_linear_40_1820)"/>
<path d="M9.5271 28.8052V30.6205C9.41192 30.6627 9.2929 30.6934 9.17175 30.7123C8.99945 30.7399 8.82525 30.7537 8.65078 30.7537C8.31851 30.7537 8.06656 30.677 7.89691 30.5237C7.72727 30.3704 7.64195 30.1304 7.64195 29.8066V28.8092H6.13623V29.7734C6.13623 30.2917 6.23193 30.715 6.42332 31.0431C6.61482 31.3728 6.91109 31.6282 7.26451 31.7682C7.70718 31.9353 8.17816 32.0134 8.65078 31.9982C8.95745 31.9987 9.26386 31.9802 9.56826 31.9427C9.84593 31.9097 10.1212 31.8589 10.3924 31.7904C10.6136 31.7368 10.8289 31.6608 11.0348 31.5635V28.8052H9.5271Z" fill="url(#paint9_linear_40_1820)"/>
<path d="M13.3456 28.8052H11.8379V31.864H13.3456V28.8052Z" fill="url(#paint10_linear_40_1820)"/>
<path d="M39.0482 28.8052H33.7139C33.7139 28.8223 33.7139 28.8385 33.7139 28.8556C33.7088 29.2873 33.7742 29.717 33.9076 30.1274C34.0275 30.4949 34.2235 30.8328 34.4828 31.1187C34.7432 31.4046 35.0653 31.6268 35.4244 31.7682C35.8411 31.9269 36.2838 32.0049 36.7294 31.9982C37.0123 31.9988 37.2951 31.9803 37.5756 31.9427C37.832 31.9096 38.0859 31.8587 38.3354 31.7904C38.5432 31.7349 38.7449 31.6589 38.9377 31.5635L38.5061 30.4279C38.3502 30.5083 38.1872 30.5741 38.0192 30.6246C37.8306 30.6845 37.6376 30.7297 37.4421 30.7597C37.2428 30.7913 37.0415 30.8075 36.8398 30.8081C36.5706 30.8125 36.3031 30.7635 36.0528 30.6639C35.8263 30.5714 35.6285 30.42 35.4796 30.2252C35.323 30.0094 35.2225 29.7577 35.1875 29.493L39.0361 28.9696C39.0482 28.9121 39.0482 28.8576 39.0482 28.8052Z" fill="url(#paint11_linear_40_1820)"/>
<path d="M41.1591 28.8052H39.6504V31.864H41.1591V28.8052Z" fill="url(#paint12_linear_40_1820)"/>
<path d="M30.6535 28.8052H29.1458V31.864H30.6535V28.8052Z" fill="url(#paint13_linear_40_1820)"/>
<path d="M28.5233 28.8052H23.188C23.188 28.8223 23.188 28.8385 23.188 28.8556C23.1829 29.2873 23.2483 29.717 23.3818 30.1274C23.502 30.4948 23.698 30.8326 23.9569 31.1187C24.2162 31.4041 24.5369 31.6262 24.8945 31.7682C25.3112 31.9268 25.7539 32.0048 26.1995 31.9982C26.4824 31.9988 26.7652 31.9803 27.0457 31.9427C27.3021 31.9096 27.556 31.8587 27.8056 31.7904C28.0133 31.7349 28.215 31.6589 28.4078 31.5635L27.9762 30.4279C27.8203 30.5083 27.6573 30.5741 27.4894 30.6246C27.3023 30.6835 27.111 30.728 26.9172 30.7577C26.7179 30.7892 26.5166 30.8054 26.3149 30.8061C26.0453 30.8106 25.7776 30.7615 25.5269 30.6619C25.3005 30.5694 25.1026 30.418 24.9537 30.2232C24.7971 30.0074 24.6967 29.7557 24.6616 29.491L28.5082 28.9665C28.5162 28.9121 28.5203 28.8576 28.5233 28.8052Z" fill="url(#paint14_linear_40_1820)"/>
<path d="M33.0986 28.8052H31.5898V31.864H33.0986V28.8052Z" fill="url(#paint15_linear_40_1820)"/>
<defs>
<linearGradient id="paint0_linear_40_1820" x1="49.4156" y1="9.34356" x2="20.544" y2="9.34356" gradientUnits="userSpaceOnUse">
<stop offset="0.03" stop-color="#003D41"/>
<stop offset="0.82" stop-color="#8FC575"/>
</linearGradient>
<linearGradient id="paint1_linear_40_1820" x1="-2.92611" y1="9.34356" x2="10.9154" y2="9.34356" gradientUnits="userSpaceOnUse">
<stop stop-color="#7ED688"/>
<stop offset="1" stop-color="#C2F8A8"/>
</linearGradient>
<linearGradient id="paint2_linear_40_1820" x1="33.0544" y1="9.34356" x2="23.1578" y2="9.34356" gradientUnits="userSpaceOnUse">
<stop stop-color="#005741"/>
<stop offset="1" stop-color="#8FC575"/>
</linearGradient>
<linearGradient id="paint3_linear_40_1820" x1="14.9226" y1="9.34356" x2="28.718" y2="9.34356" gradientUnits="userSpaceOnUse">
<stop stop-color="#65BD6F"/>
<stop offset="0.81" stop-color="#C2F8A8"/>
</linearGradient>
<linearGradient id="paint4_linear_40_1820" x1="25.9896" y1="9.34356" x2="23.0786" y2="9.34356" gradientUnits="userSpaceOnUse">
<stop stop-color="#187041"/>
<stop offset="1" stop-color="#F5F8FF"/>
</linearGradient>
<linearGradient id="paint5_linear_40_1820" x1="22.9231" y1="9.34356" x2="27.0578" y2="9.34356" gradientUnits="userSpaceOnUse">
<stop stop-color="#4BA354"/>
<stop offset="0.76" stop-color="#F6F6FB"/>
</linearGradient>
<linearGradient id="paint6_linear_40_1820" x1="21.6784" y1="31.9528" x2="21.6784" y2="28.8052" gradientUnits="userSpaceOnUse">
<stop stop-color="#FEFEFE" stop-opacity="0"/>
<stop offset="0.54" stop-color="#FEFEFE" stop-opacity="0"/>
<stop offset="1" stop-color="#E6E5E5"/>
</linearGradient>
<linearGradient id="paint7_linear_40_1820" x1="18.3969" y1="31.864" x2="18.3969" y2="28.8052" gradientUnits="userSpaceOnUse">
<stop stop-color="#FEFEFE" stop-opacity="0"/>
<stop offset="0.54" stop-color="#FEFEFE" stop-opacity="0"/>
<stop offset="1" stop-color="#E6E5E5"/>
</linearGradient>
<linearGradient id="paint8_linear_40_1820" x1="16.058" y1="31.864" x2="16.058" y2="28.8052" gradientUnits="userSpaceOnUse">
<stop stop-color="#FEFEFE" stop-opacity="0"/>
<stop offset="0.54" stop-color="#FEFEFE" stop-opacity="0"/>
<stop offset="1" stop-color="#E6E5E5"/>
</linearGradient>
<linearGradient id="paint9_linear_40_1820" x1="8.58452" y1="31.9972" x2="8.58452" y2="28.8052" gradientUnits="userSpaceOnUse">
<stop stop-color="#FEFEFE" stop-opacity="0"/>
<stop offset="0.54" stop-color="#FEFEFE" stop-opacity="0"/>
<stop offset="1" stop-color="#E6E5E5"/>
</linearGradient>
<linearGradient id="paint10_linear_40_1820" x1="12.5928" y1="31.864" x2="12.5928" y2="28.8052" gradientUnits="userSpaceOnUse">
<stop stop-color="#FEFEFE" stop-opacity="0"/>
<stop offset="0.54" stop-color="#FEFEFE" stop-opacity="0"/>
<stop offset="1" stop-color="#E6E5E5"/>
</linearGradient>
<linearGradient id="paint11_linear_40_1820" x1="36.382" y1="31.9972" x2="36.382" y2="28.8052" gradientUnits="userSpaceOnUse">
<stop stop-color="#FEFEFE" stop-opacity="0"/>
<stop offset="0.54" stop-color="#FEFEFE" stop-opacity="0"/>
<stop offset="1" stop-color="#E6E5E5"/>
</linearGradient>
<linearGradient id="paint12_linear_40_1820" x1="40.4043" y1="31.864" x2="40.4043" y2="28.8052" gradientUnits="userSpaceOnUse">
<stop stop-color="#FEFEFE" stop-opacity="0"/>
<stop offset="0.54" stop-color="#FEFEFE" stop-opacity="0"/>
<stop offset="1" stop-color="#E6E5E5"/>
</linearGradient>
<linearGradient id="paint13_linear_40_1820" x1="29.8996" y1="31.864" x2="29.8996" y2="28.8052" gradientUnits="userSpaceOnUse">
<stop stop-color="#FEFEFE" stop-opacity="0"/>
<stop offset="0.54" stop-color="#FEFEFE" stop-opacity="0"/>
<stop offset="1" stop-color="#E6E5E5"/>
</linearGradient>
<linearGradient id="paint14_linear_40_1820" x1="25.8551" y1="31.9972" x2="25.8551" y2="28.8052" gradientUnits="userSpaceOnUse">
<stop stop-color="#FEFEFE" stop-opacity="0"/>
<stop offset="0.54" stop-color="#FEFEFE" stop-opacity="0"/>
<stop offset="1" stop-color="#E6E5E5"/>
</linearGradient>
<linearGradient id="paint15_linear_40_1820" x1="32.3437" y1="31.864" x2="32.3437" y2="28.8052" gradientUnits="userSpaceOnUse">
<stop stop-color="#FEFEFE" stop-opacity="0"/>
<stop offset="0.54" stop-color="#FEFEFE" stop-opacity="0"/>
<stop offset="1" stop-color="#E6E5E5"/>
</linearGradient>
</defs>
</svg>
